<svg width="247" height="21" viewBox="0 0 247 21" fill="none" xmlns="http://www.w3.org/2000/svg">
<path d="M11.396 20.78C9.828 20.78 8.35333 20.5467 6.972 20.08C5.60933 19.5947 4.40533 18.9133 3.36 18.036C2.33333 17.14 1.53067 16.076 0.952 14.844C0.373334 13.5933 0.0840002 12.212 0.0840002 10.7C0.0840002 9.26267 0.382667 7.93733 0.98 6.724C1.596 5.51067 2.42667 4.456 3.472 3.56C4.51733 2.664 5.72133 1.97333 7.084 1.488C8.44667 0.983999 9.884 0.731999 11.396 0.731999C12.6653 0.731999 13.8787 0.899999 15.036 1.236C16.1933 1.55333 17.2387 1.964 18.172 2.468C19.124 2.95333 19.88 3.46667 20.44 4.008L18.648 6.556C17.976 5.996 17.2573 5.50133 16.492 5.072C15.7267 4.64267 14.896 4.30667 14 4.064C13.1227 3.82133 12.1613 3.7 11.116 3.7C10.1267 3.7 9.156 3.868 8.204 4.204C7.27067 4.52133 6.42133 4.988 5.656 5.604C4.89067 6.20133 4.284 6.93867 3.836 7.816C3.388 8.67467 3.164 9.636 3.164 10.7C3.164 11.876 3.39733 12.912 3.864 13.808C4.33067 14.6853 4.96533 15.4227 5.768 16.02C6.57067 16.6173 7.476 17.0747 8.484 17.392C9.492 17.6907 10.5373 17.84 11.62 17.84C12.74 17.84 13.7387 17.7 14.616 17.42C15.4933 17.1213 16.2773 16.7573 16.968 16.328C17.6587 15.8987 18.284 15.4787 18.844 15.068L20.3 17.588C19.7773 18.0173 19.0587 18.484 18.144 18.988C17.248 19.492 16.2213 19.9213 15.064 20.276C13.9253 20.612 12.7027 20.78 11.396 20.78ZM29.0765 20.5V0.899999H32.1005V17.588H45.2045V20.5H29.0765ZM64.0178 20.78C62.2818 20.78 60.6952 20.528 59.2578 20.024C57.8205 19.5013 56.5698 18.7827 55.5058 17.868C54.4418 16.9347 53.6205 15.8613 53.0418 14.648C52.4632 13.416 52.1738 12.1 52.1738 10.7C52.1738 9.3 52.4632 7.99333 53.0418 6.78C53.6205 5.548 54.4418 4.47467 55.5058 3.56C56.5698 2.62667 57.8205 1.908 59.2578 1.404C60.6952 0.881332 62.2818 0.619999 64.0178 0.619999C65.7352 0.619999 67.3125 0.881332 68.7498 1.404C70.1872 1.908 71.4378 2.62667 72.5018 3.56C73.5658 4.47467 74.3872 5.548 74.9658 6.78C75.5632 7.99333 75.8618 9.3 75.8618 10.7C75.8618 12.1 75.5632 13.416 74.9658 14.648C74.3872 15.8613 73.5658 16.9347 72.5018 17.868C71.4378 18.7827 70.1872 19.5013 68.7498 20.024C67.3125 20.528 65.7352 20.78 64.0178 20.78ZM64.0178 17.84C65.3058 17.84 66.4818 17.6627 67.5458 17.308C68.6098 16.9347 69.5338 16.4307 70.3178 15.796C71.1018 15.1427 71.7085 14.3867 72.1378 13.528C72.5672 12.6507 72.7818 11.708 72.7818 10.7C72.7818 9.692 72.5672 8.75867 72.1378 7.9C71.7085 7.02267 71.1018 6.26667 70.3178 5.632C69.5338 4.97867 68.6098 4.47467 67.5458 4.12C66.4818 3.74667 65.3058 3.56 64.0178 3.56C62.7298 3.56 61.5445 3.74667 60.4618 4.12C59.3978 4.47467 58.4738 4.97867 57.6898 5.632C56.9058 6.26667 56.2992 7.02267 55.8698 7.9C55.4592 8.75867 55.2538 9.692 55.2538 10.7C55.2538 11.708 55.4592 12.6507 55.8698 13.528C56.2992 14.3867 56.9058 15.1427 57.6898 15.796C58.4738 16.4307 59.3978 16.9347 60.4618 17.308C61.5445 17.6627 62.7298 17.84 64.0178 17.84ZM94.0496 20.668C92.0709 20.668 90.3443 20.2573 88.8696 19.436C87.3949 18.596 86.2469 17.4573 85.4256 16.02C84.6043 14.5827 84.1936 12.9493 84.1936 11.12V0.871999H87.2176V11.008C87.2176 12.296 87.5163 13.4533 88.1136 14.48C88.7296 15.488 89.5509 16.2813 90.5776 16.86C91.6229 17.4387 92.7803 17.728 94.0496 17.728C95.3936 17.728 96.5883 17.4387 97.6336 16.86C98.6789 16.2813 99.5003 15.488 100.098 14.48C100.714 13.4533 101.022 12.296 101.022 11.008V0.871999H103.906V11.12C103.906 12.9493 103.495 14.5827 102.674 16.02C101.852 17.4573 100.704 18.596 99.2296 19.436C97.7549 20.2573 96.0283 20.668 94.0496 20.668ZM113.76 20.5V0.899999H123.672C125.464 0.899999 127.041 1.16133 128.404 1.684C129.785 2.20667 130.943 2.92533 131.876 3.84C132.809 4.736 133.509 5.772 133.976 6.948C134.443 8.124 134.676 9.37467 134.676 10.7C134.676 12.044 134.443 13.3133 133.976 14.508C133.509 15.684 132.809 16.72 131.876 17.616C130.943 18.512 129.785 19.2213 128.404 19.744C127.041 20.248 125.464 20.5 123.672 20.5H113.76ZM116.784 17.896L116.7 17.588H123.532C124.932 17.588 126.127 17.4107 127.116 17.056C128.124 16.7013 128.945 16.2067 129.58 15.572C130.215 14.9373 130.681 14.2093 130.98 13.388C131.297 12.548 131.456 11.652 131.456 10.7C131.456 9.76667 131.297 8.88933 130.98 8.068C130.681 7.24667 130.215 6.51867 129.58 5.884C128.945 5.23067 128.124 4.72667 127.116 4.372C126.127 3.99867 124.932 3.812 123.532 3.812H116.616L116.784 3.56V17.896ZM143.346 20.5V0.899999H146.342L162.246 16.944L162.078 17.196C161.985 16.636 161.901 16.0387 161.826 15.404C161.77 14.7507 161.723 14.088 161.686 13.416C161.649 12.7253 161.611 12.0347 161.574 11.344C161.555 10.6347 161.537 9.944 161.518 9.272C161.518 8.6 161.518 7.956 161.518 7.34V0.899999H164.542V20.5H161.49L145.782 5.044L145.81 4.652C145.847 4.988 145.885 5.38933 145.922 5.856C145.959 6.32267 146.006 6.82667 146.062 7.368C146.118 7.90933 146.165 8.46933 146.202 9.048C146.258 9.608 146.295 10.1773 146.314 10.756C146.351 11.316 146.37 11.848 146.37 12.352V20.5H143.346ZM174.961 20.5V17.504H180.085V3.896H174.961V0.899999H188.233V3.896H183.109V17.504H188.233V20.5H174.961ZM198.635 20.5V0.899999H201.631L217.535 16.944L217.367 17.196C217.274 16.636 217.19 16.0387 217.115 15.404C217.059 14.7507 217.012 14.088 216.975 13.416C216.938 12.7253 216.9 12.0347 216.863 11.344C216.844 10.6347 216.826 9.944 216.807 9.272C216.807 8.6 216.807 7.956 216.807 7.34V0.899999H219.831V20.5H216.779L201.071 5.044L201.099 4.652C201.136 4.988 201.174 5.38933 201.211 5.856C201.248 6.32267 201.295 6.82667 201.351 7.368C201.407 7.90933 201.454 8.46933 201.491 9.048C201.547 9.608 201.584 10.1773 201.603 10.756C201.64 11.316 201.659 11.848 201.659 12.352V20.5H198.635ZM230.026 20.5V0.899999H246.294V3.812H233.05V17.588H246.294V20.5H230.026ZM231.678 11.904V8.992H244.754V11.904H231.678Z" fill="#D7DFE4"/>
</svg>
