<svg width="171" height="34" viewBox="0 0 171 34" fill="none" xmlns="http://www.w3.org/2000/svg">
<path d="M28.554 20.9549C24.7899 23.6327 19.8526 23.9302 15.836 21.8334M3.44593 12.0453C7.21919 9.36096 12.1713 9.06858 16.1931 11.1821M20.4983 19.3325C24.3472 16.9068 26.5758 12.4656 26.1346 7.84971M11.4424 13.705C7.62975 16.1389 5.42612 20.5582 5.86503 25.1505M20.7025 14.0161C20.5252 9.47143 17.7933 5.32254 13.5761 3.39638M11.3008 19.0676C11.5082 23.5795 14.2324 27.6894 18.4237 29.6038M25.4281 7.07199C30.6351 12.279 30.6351 20.7212 25.4281 25.9281C20.2211 31.1351 11.7789 31.1351 6.57191 25.9281C1.36492 20.7212 1.36492 12.279 6.57191 7.07199C11.7789 1.865 20.2211 1.865 25.4281 7.07199ZM19.7712 12.7288C21.854 14.8116 21.854 18.1885 19.7712 20.2713C17.6884 22.3541 14.3116 22.3541 12.2288 20.2713C10.146 18.1885 10.146 14.8116 12.2288 12.7288C14.3116 10.646 17.6884 10.646 19.7712 12.7288Z" stroke="#D7DFE4" stroke-width="2" stroke-linecap="round" stroke-linejoin="round"/>
<path d="M46.8828 26.8164C46.1797 26.8164 45.7695 26.5117 45.6523 25.9023L41.1641 8.47656H39.2422C38.9688 8.47656 38.7578 8.37891 38.6094 8.18359C38.4609 7.98047 38.3867 7.75 38.3867 7.49219C38.3867 7.19531 38.4492 6.94141 38.5742 6.73047C38.707 6.51953 38.9219 6.41406 39.2188 6.41406H45.0547C45.3516 6.41406 45.5664 6.51953 45.6992 6.73047C45.832 6.94141 45.8984 7.19531 45.8984 7.49219C45.8984 7.75 45.8203 7.98047 45.6641 8.18359C45.5156 8.37891 45.3047 8.47656 45.0312 8.47656H43.9297L47.2578 22.0352L51.0547 8.47656H49.9766C49.7031 8.47656 49.4883 8.37891 49.332 8.18359C49.1836 7.98047 49.1094 7.75 49.1094 7.49219C49.1094 7.19531 49.1758 6.94141 49.3086 6.73047C49.4414 6.51953 49.6562 6.41406 49.9531 6.41406H54.1016C54.3984 6.41406 54.6133 6.51953 54.7461 6.73047C54.8789 6.94141 54.9453 7.19531 54.9453 7.49219C54.9453 7.75 54.8672 7.98047 54.7109 8.18359C54.5625 8.37891 54.3516 8.47656 54.0781 8.47656H52.9062L56.1641 21.8008L59.8672 8.47656H58.4492C58.1758 8.47656 57.9609 8.37891 57.8047 8.18359C57.6562 7.98047 57.582 7.75 57.582 7.49219C57.582 7.19531 57.6484 6.94141 57.7812 6.73047C57.9141 6.51953 58.1289 6.41406 58.4258 6.41406H64.25C64.5469 6.41406 64.7617 6.51953 64.8945 6.73047C65.0273 6.94141 65.0938 7.19531 65.0938 7.49219C65.0938 7.75 65.0156 7.98047 64.8594 8.18359C64.7109 8.37891 64.5 8.47656 64.2266 8.47656H62.2812L57.1719 26.043C57.0938 26.2539 56.9336 26.4336 56.6914 26.582C56.4492 26.7383 56.1797 26.8164 55.8828 26.8164C55.5859 26.8164 55.3281 26.7422 55.1094 26.5938C54.8906 26.4531 54.7617 26.2383 54.7227 25.9492L51.6992 13.1992L48.2188 26.043C48.1406 26.2617 47.9727 26.4453 47.7148 26.5938C47.457 26.7422 47.1797 26.8164 46.8828 26.8164ZM68.8681 9.77734C68.3759 9.77734 67.9541 9.60547 67.6025 9.26172C67.2588 8.91016 67.0869 8.48828 67.0869 7.99609C67.0869 7.50391 67.2588 7.08594 67.6025 6.74219C67.9541 6.39062 68.3759 6.21484 68.8681 6.21484C69.3603 6.21484 69.7783 6.39062 70.122 6.74219C70.4658 7.08594 70.6377 7.50391 70.6377 7.99609C70.6377 8.48828 70.4658 8.91016 70.122 9.26172C69.7783 9.60547 69.3603 9.77734 68.8681 9.77734ZM66.2197 26.5C65.5791 26.5 65.2588 26.1758 65.2588 25.5273C65.2588 25.2383 65.3291 24.9922 65.4697 24.7891C65.6181 24.5781 65.8447 24.4727 66.1494 24.4727H67.7548V14.9805L66.0791 15.4375C66.0322 15.4531 65.9775 15.4609 65.915 15.4609C65.6806 15.4609 65.4619 15.3672 65.2588 15.1797C65.0556 14.9844 64.9541 14.7656 64.9541 14.5234C64.9541 13.9844 65.1767 13.6562 65.622 13.5391L69.372 12.6016C69.4345 12.5859 69.497 12.5781 69.5595 12.5781C69.958 12.5781 70.1572 12.7617 70.1572 13.1289V24.4727H71.9619C72.2588 24.4727 72.4736 24.5781 72.6064 24.7891C72.7392 25 72.8056 25.2539 72.8056 25.5508C72.8056 25.8086 72.7275 26.0312 72.5713 26.2188C72.4228 26.4062 72.2119 26.5 71.9384 26.5H66.2197ZM74.2831 26.5C73.955 26.5 73.7128 26.4062 73.5566 26.2188C73.4003 26.0312 73.3222 25.7891 73.3222 25.4922C73.3222 25.2031 73.3925 24.957 73.5331 24.7539C73.6816 24.543 73.9081 24.4375 74.2128 24.4375H75.6659V15.0273L73.9902 15.4375C73.9433 15.4531 73.8886 15.4609 73.8261 15.4609C73.5917 15.4609 73.373 15.3672 73.1698 15.1797C72.9667 14.9844 72.8652 14.7656 72.8652 14.5234C72.8652 14.0078 73.0878 13.6797 73.5331 13.5391L76.8027 12.6016C76.8417 12.6016 76.8613 12.5977 76.8613 12.5898C76.8691 12.582 76.8886 12.5781 76.9198 12.5781H76.9902C77.1542 12.5781 77.2948 12.6289 77.412 12.7305C77.5292 12.8242 77.5878 12.957 77.5878 13.1289L77.8339 15.3438C78.0995 14.8594 78.4902 14.4102 79.0058 13.9961C79.5214 13.5742 80.1152 13.2344 80.787 12.9766C81.4589 12.7109 82.162 12.5781 82.8964 12.5781C84.3652 12.5781 85.5253 13.0078 86.3769 13.8672C87.2363 14.7188 87.6659 15.8828 87.6659 17.3594V24.4375H89.1308C89.4277 24.4375 89.6425 24.543 89.7753 24.7539C89.9081 24.9648 89.9745 25.2188 89.9745 25.5156C89.9745 25.7734 89.8964 26.0039 89.7402 26.207C89.5917 26.4023 89.3808 26.5 89.1073 26.5H83.4003C83.0722 26.5 82.83 26.4062 82.6738 26.2188C82.5175 26.0312 82.4394 25.7891 82.4394 25.4922C82.4394 25.2031 82.5097 24.957 82.6503 24.7539C82.7988 24.543 83.0253 24.4375 83.33 24.4375H85.2988V17.5703C85.2988 16.6328 85.0644 15.8984 84.5956 15.3672C84.1269 14.8359 83.4159 14.5703 82.4628 14.5703C81.7675 14.5703 81.08 14.7305 80.4003 15.0508C79.7284 15.3633 79.1698 15.793 78.7245 16.3398C78.287 16.8867 78.0683 17.5117 78.0683 18.2148V24.4375H79.7792C80.0761 24.4375 80.287 24.543 80.412 24.7539C80.5448 24.9648 80.6113 25.2188 80.6113 25.5156C80.6113 25.7734 80.537 26.0039 80.3886 26.207C80.2402 26.4023 80.0292 26.5 79.7558 26.5H74.2831ZM96.3856 32.4062C95.6981 32.4062 95.0145 32.3398 94.3348 32.207C93.6552 32.0742 93.0341 31.8594 92.4716 31.5625C91.9091 31.2734 91.4598 30.8906 91.1239 30.4141C90.788 29.9375 90.62 29.3594 90.62 28.6797C90.62 27.8203 90.788 27.1406 91.1239 26.6406C91.4677 26.1406 91.9481 25.75 92.5653 25.4688C92.2216 25.2969 91.8856 25.0469 91.5575 24.7188C91.2372 24.3906 91.077 23.9609 91.077 23.4297C91.077 22.7656 91.2489 22.2734 91.5927 21.9531C91.9442 21.625 92.3973 21.3906 92.952 21.25C92.2567 20.7891 91.6864 20.2852 91.2411 19.7383C90.7958 19.1836 90.5731 18.4062 90.5731 17.4062C90.5731 16.375 90.8387 15.5 91.37 14.7812C91.9091 14.0625 92.6239 13.5156 93.5145 13.1406C94.4052 12.7656 95.3778 12.5781 96.4325 12.5781C97.3387 12.5781 98.1552 12.6953 98.8817 12.9297C99.6083 13.1641 100.229 13.4883 100.745 13.9023L102.339 12.3438C102.69 11.9922 103.054 11.7734 103.429 11.6875C103.811 11.5938 104.159 11.5469 104.472 11.5469C104.847 11.5469 105.182 11.6211 105.479 11.7695C105.784 11.918 105.936 12.1875 105.936 12.5781C105.936 12.8516 105.772 13.1094 105.444 13.3516C105.116 13.5859 104.55 13.7031 103.745 13.7031L101.729 14.9805C101.925 15.3633 102.108 15.8047 102.28 16.3047C102.46 16.8047 102.55 17.3242 102.55 17.8633C102.55 18.8789 102.272 19.7266 101.718 20.4062C101.171 21.0859 100.432 21.5938 99.5028 21.9297C98.5809 22.2656 97.5575 22.4336 96.4325 22.4336C96.2841 22.4336 96.1161 22.4297 95.9286 22.4219C95.7411 22.4141 95.5458 22.4102 95.3427 22.4102C95.0067 22.4102 94.6747 22.4375 94.3466 22.4922C94.0262 22.5391 93.7606 22.6445 93.5497 22.8086C93.3387 22.9727 93.2333 23.2266 93.2333 23.5703C93.2333 23.8359 93.3466 24.0352 93.5731 24.168C93.7997 24.293 94.0848 24.375 94.4286 24.4141C94.7802 24.4531 95.1356 24.4727 95.495 24.4727C95.6981 24.4727 95.8895 24.4727 96.0692 24.4727C96.2567 24.4648 96.4247 24.4609 96.5731 24.4609C97.5262 24.4609 98.4247 24.5 99.2684 24.5781C100.112 24.6562 100.862 24.832 101.518 25.1055C102.175 25.3789 102.686 25.7969 103.054 26.3594C103.429 26.9219 103.616 27.6875 103.616 28.6562C103.616 29.5391 103.413 30.2344 103.007 30.7422C102.6 31.25 102.05 31.6211 101.354 31.8555C100.667 32.0977 99.8934 32.25 99.0341 32.3125C98.1747 32.375 97.2919 32.4062 96.3856 32.4062ZM96.5028 20.793C97.5419 20.793 98.3817 20.5625 99.0223 20.1016C99.663 19.6328 99.9833 18.8086 99.9833 17.6289C99.9833 16.5273 99.6942 15.6797 99.1161 15.0859C98.5458 14.4844 97.7059 14.1836 96.5966 14.1836C95.5262 14.1836 94.6591 14.4844 93.995 15.0859C93.3309 15.6797 92.9989 16.5469 92.9989 17.6875C92.9989 18.7266 93.327 19.5039 93.9833 20.0195C94.6473 20.5352 95.4872 20.793 96.5028 20.793ZM96.3387 30.4375C96.9559 30.4375 97.5614 30.4219 98.1552 30.3906C98.7489 30.3594 99.2841 30.2812 99.7606 30.1562C100.237 30.0391 100.616 29.8438 100.897 29.5703C101.186 29.2969 101.331 28.9141 101.331 28.4219C101.331 27.8438 101.151 27.418 100.792 27.1445C100.44 26.8711 99.9833 26.6914 99.4208 26.6055C98.8583 26.5273 98.2684 26.4883 97.6512 26.4883C97.4091 26.4883 97.1903 26.4922 96.995 26.5C96.7997 26.5 96.6122 26.5 96.4325 26.5C96.0731 26.5 95.702 26.4805 95.3192 26.4414C94.9364 26.3945 94.4012 26.2969 93.7137 26.1484C93.4716 26.3906 93.2216 26.6797 92.9637 27.0156C92.7137 27.3516 92.5887 27.7656 92.5887 28.2578C92.5887 28.7969 92.7684 29.2227 93.1278 29.5352C93.4872 29.8555 93.952 30.0859 94.5223 30.2266C95.0927 30.3672 95.6981 30.4375 96.3387 30.4375ZM113.18 26.8164C112.351 26.8164 111.504 26.707 110.637 26.4883C109.769 26.2695 108.961 25.9023 108.211 25.3867C108.18 25.6523 108.098 25.9531 107.965 26.2891C107.84 26.625 107.64 26.793 107.367 26.793C106.765 26.793 106.437 26.543 106.383 26.043L105.715 20.2305C105.715 19.6133 106.09 19.3047 106.84 19.3047C107.074 19.3047 107.281 19.375 107.461 19.5156C107.64 19.6484 107.746 19.832 107.777 20.0664L107.965 21.6953C108.019 22.1797 108.285 22.6562 108.762 23.125C109.238 23.5938 109.844 23.9805 110.578 24.2852C111.312 24.5898 112.082 24.7422 112.887 24.7422C113.558 24.7422 114.234 24.6914 114.914 24.5898C115.594 24.4805 116.215 24.2969 116.777 24.0391C117.34 23.7734 117.793 23.4062 118.137 22.9375C118.48 22.4609 118.652 21.8555 118.652 21.1211C118.652 20.4102 118.504 19.8555 118.207 19.457C117.918 19.0508 117.527 18.7344 117.035 18.5078C116.551 18.2812 116.015 18.0859 115.43 17.9219L111.586 16.832C110.648 16.6211 109.812 16.3086 109.078 15.8945C108.351 15.4805 107.777 14.9258 107.355 14.2305C106.941 13.5352 106.734 12.6602 106.734 11.6055C106.734 10.457 107.039 9.47656 107.648 8.66406C108.265 7.84375 109.094 7.21484 110.133 6.77734C111.172 6.33984 112.32 6.12109 113.578 6.12109C114.398 6.12109 115.23 6.22266 116.074 6.42578C116.926 6.62891 117.637 6.96484 118.207 7.43359C118.207 7.10547 118.308 6.80859 118.512 6.54297C118.723 6.26953 118.988 6.13281 119.308 6.13281C119.543 6.13281 119.75 6.20312 119.93 6.34375C120.109 6.48438 120.215 6.67188 120.246 6.90625L120.328 11.5586C120.328 11.8945 120.226 12.1406 120.023 12.2969C119.82 12.4453 119.562 12.5195 119.25 12.5195C118.648 12.5195 118.32 12.2734 118.265 11.7812L118.219 10.4219C118.148 9.82812 117.898 9.35156 117.469 8.99219C117.047 8.63281 116.523 8.375 115.898 8.21875C115.281 8.05469 114.637 7.97266 113.965 7.97266C112.707 7.97266 111.742 8.13672 111.07 8.46484C110.406 8.79297 109.949 9.21875 109.699 9.74219C109.449 10.2656 109.324 10.8242 109.324 11.418C109.324 12.1758 109.586 12.7891 110.109 13.2578C110.64 13.7188 111.43 14.0781 112.476 14.3359L115.84 15.168C116.871 15.4258 117.777 15.7852 118.558 16.2461C119.348 16.6992 119.961 17.3164 120.398 18.0977C120.836 18.8789 121.055 19.8906 121.055 21.1328C121.055 22.1484 120.84 23.0195 120.41 23.7461C119.98 24.4648 119.394 25.0508 118.652 25.5039C117.918 25.957 117.078 26.2891 116.133 26.5C115.195 26.7109 114.211 26.8164 113.18 26.8164ZM122.813 33.2383C122.485 33.2383 122.243 33.1445 122.087 32.957C121.93 32.7695 121.852 32.5273 121.852 32.2305C121.852 31.9414 121.923 31.6914 122.063 31.4805C122.212 31.2773 122.438 31.1758 122.743 31.1758H124.208V15.0273L122.532 15.4375C122.485 15.4531 122.427 15.4609 122.356 15.4609C122.122 15.4609 121.903 15.3672 121.7 15.1797C121.497 14.9844 121.395 14.7656 121.395 14.5234C121.395 14.0078 121.622 13.6797 122.075 13.5391L125.333 12.6016C125.372 12.6016 125.391 12.5977 125.391 12.5898C125.399 12.582 125.419 12.5781 125.45 12.5781H125.532C125.696 12.5781 125.837 12.6289 125.954 12.7305C126.071 12.8242 126.13 12.957 126.13 13.1289L126.364 15.3438C126.739 14.5391 127.36 13.8789 128.227 13.3633C129.102 12.8398 130.114 12.5781 131.262 12.5781C132.637 12.5781 133.809 12.8828 134.778 13.4922C135.755 14.1016 136.501 14.9414 137.016 16.0117C137.532 17.0742 137.79 18.2969 137.79 19.6797C137.79 21.0703 137.512 22.3008 136.958 23.3711C136.403 24.4414 135.618 25.2812 134.602 25.8906C133.595 26.4922 132.403 26.793 131.028 26.793C130.059 26.793 129.22 26.6484 128.509 26.3594C127.798 26.0703 127.165 25.6914 126.61 25.2227V31.1758H128.977C129.274 31.1758 129.489 31.2812 129.622 31.4922C129.755 31.7109 129.821 31.9688 129.821 32.2656C129.821 32.5234 129.743 32.75 129.587 32.9453C129.438 33.1406 129.227 33.2383 128.954 33.2383H122.813ZM131.028 24.8008C131.942 24.8008 132.708 24.5664 133.325 24.0977C133.95 23.6289 134.419 23.0078 134.731 22.2344C135.044 21.4531 135.2 20.6016 135.2 19.6797C135.2 18.75 135.048 17.8984 134.743 17.125C134.438 16.3516 133.981 15.7344 133.372 15.2734C132.762 14.8047 132.005 14.5703 131.098 14.5703C130.059 14.5703 129.169 14.7656 128.427 15.1562C127.684 15.5391 127.079 16.0391 126.61 16.6562V23.1836C127.11 23.6836 127.723 24.0781 128.45 24.3672C129.184 24.6562 130.044 24.8008 131.028 24.8008ZM143.345 26.8281C142.549 26.8281 141.834 26.6641 141.201 26.3359C140.568 26.0078 140.068 25.5508 139.701 24.9648C139.334 24.3711 139.15 23.6836 139.15 22.9023C139.15 22.0586 139.334 21.3633 139.701 20.8164C140.076 20.2617 140.576 19.8203 141.201 19.4922C141.834 19.1562 142.545 18.9023 143.334 18.7305C144.123 18.5508 144.939 18.418 145.783 18.332C146.627 18.2461 147.439 18.168 148.22 18.0977V16.1992C148.22 15.7852 148.095 15.4609 147.845 15.2266C147.603 14.9922 147.295 14.8242 146.92 14.7227C146.545 14.6211 146.154 14.5703 145.748 14.5703C145.013 14.5703 144.408 14.6211 143.931 14.7227C143.455 14.8242 143.017 14.9805 142.619 15.1914C142.228 15.4023 141.783 15.668 141.283 15.9883C141.135 16.0742 140.998 16.1172 140.873 16.1172C140.607 16.1172 140.369 15.9922 140.158 15.7422C139.947 15.4922 139.842 15.2305 139.842 14.957C139.842 14.4883 140.033 14.1016 140.416 13.7969C140.806 13.4844 141.299 13.2422 141.892 13.0703C142.486 12.8906 143.099 12.7656 143.732 12.6953C144.365 12.6172 144.924 12.5781 145.408 12.5781C146.736 12.5781 147.771 12.7617 148.513 13.1289C149.263 13.4883 149.791 14.0664 150.095 14.8633C150.4 15.6602 150.552 16.7148 150.552 18.0273V23.9336C150.552 24.1758 150.592 24.3789 150.67 24.543C150.756 24.6992 150.888 24.7773 151.068 24.7773C151.302 24.7773 151.56 24.6719 151.842 24.4609C152.123 24.25 152.392 24.0391 152.65 23.8281C152.916 23.6172 153.142 23.5117 153.33 23.5117C153.51 23.5117 153.693 23.6289 153.881 23.8633C154.068 24.0898 154.162 24.3125 154.162 24.5312C154.162 24.8438 154.045 25.1367 153.81 25.4102C153.576 25.6836 153.279 25.9258 152.92 26.1367C152.568 26.3398 152.205 26.5 151.83 26.6172C151.463 26.7344 151.146 26.793 150.881 26.793C149.592 26.793 148.81 26.1602 148.537 24.8945C147.967 25.5586 147.22 26.0469 146.299 26.3594C145.377 26.6719 144.392 26.8281 143.345 26.8281ZM144.166 24.8008C144.986 24.8008 145.732 24.6523 146.404 24.3555C147.076 24.0586 147.681 23.6953 148.22 23.2656V19.8555C147.603 19.9258 146.916 20 146.158 20.0781C145.408 20.1484 144.693 20.2734 144.013 20.4531C143.334 20.6328 142.771 20.9102 142.326 21.2852C141.888 21.6602 141.67 22.1758 141.67 22.832C141.67 23.4961 141.916 23.9922 142.408 24.3203C142.9 24.6406 143.486 24.8008 144.166 24.8008ZM155.171 26.5C154.842 26.5 154.6 26.4062 154.444 26.2188C154.288 26.0312 154.21 25.7891 154.21 25.4922C154.21 25.2031 154.28 24.957 154.421 24.7539C154.569 24.543 154.796 24.4375 155.1 24.4375H156.553V15.0273L154.878 15.4375C154.831 15.4531 154.776 15.4609 154.714 15.4609C154.479 15.4609 154.26 15.3672 154.057 15.1797C153.854 14.9844 153.753 14.7656 153.753 14.5234C153.753 14.0078 153.975 13.6797 154.421 13.5391L157.69 12.6016C157.729 12.6016 157.749 12.5977 157.749 12.5898C157.757 12.582 157.776 12.5781 157.807 12.5781H157.878C158.042 12.5781 158.182 12.6289 158.3 12.7305C158.417 12.8242 158.475 12.957 158.475 13.1289L158.721 15.3438C158.987 14.8594 159.378 14.4102 159.893 13.9961C160.409 13.5742 161.003 13.2344 161.675 12.9766C162.346 12.7109 163.05 12.5781 163.784 12.5781C165.253 12.5781 166.413 13.0078 167.264 13.8672C168.124 14.7188 168.553 15.8828 168.553 17.3594V24.4375H170.018C170.315 24.4375 170.53 24.543 170.663 24.7539C170.796 24.9648 170.862 25.2188 170.862 25.5156C170.862 25.7734 170.784 26.0039 170.628 26.207C170.479 26.4023 170.268 26.5 169.995 26.5H164.288C163.96 26.5 163.717 26.4062 163.561 26.2188C163.405 26.0312 163.327 25.7891 163.327 25.4922C163.327 25.2031 163.397 24.957 163.538 24.7539C163.686 24.543 163.913 24.4375 164.217 24.4375H166.186V17.5703C166.186 16.6328 165.952 15.8984 165.483 15.3672C165.014 14.8359 164.303 14.5703 163.35 14.5703C162.655 14.5703 161.967 14.7305 161.288 15.0508C160.616 15.3633 160.057 15.793 159.612 16.3398C159.175 16.8867 158.956 17.5117 158.956 18.2148V24.4375H160.667C160.964 24.4375 161.175 24.543 161.3 24.7539C161.432 24.9648 161.499 25.2188 161.499 25.5156C161.499 25.7734 161.425 26.0039 161.276 26.207C161.128 26.4023 160.917 26.5 160.643 26.5H155.171Z" fill="#D7DFE4"/>
</svg>
