<svg width="132" height="33" viewBox="0 0 132 33" fill="none" xmlns="http://www.w3.org/2000/svg">
<path d="M36.3519 9.16667C37.0843 8.34833 38.1487 7.83333 39.3334 7.83333C41.5425 7.83333 43.3334 9.62419 43.3334 11.8333C43.3334 14.0425 41.5425 15.8333 39.3334 15.8333H31.3333M23.0185 5.83333C23.7509 5.015 24.8153 4.5 26 4.5C28.2091 4.5 30 6.29086 30 8.5C30 10.7091 28.2091 12.5 26 12.5H16.6667M28.3519 27.1667C29.0843 27.985 30.1487 28.5 31.3333 28.5C33.5425 28.5 35.3333 26.7091 35.3333 24.5C35.3333 22.2909 33.5425 20.5 31.3333 20.5H16.6667" stroke="#D7DFE4" stroke-width="3" stroke-linecap="round" stroke-linejoin="round"/>
<path d="M55.672 11.052C55.048 11.052 54.528 10.852 54.112 10.452C53.712 10.036 53.512 9.548 53.512 8.988C53.512 8.396 53.712 7.9 54.112 7.5C54.528 7.084 55.048 6.876 55.672 6.876C56.296 6.876 56.808 7.084 57.208 7.5C57.624 7.9 57.832 8.396 57.832 8.988C57.832 9.548 57.624 10.036 57.208 10.452C56.808 10.852 56.296 11.052 55.672 11.052ZM52.744 30.42C52.232 30.42 51.816 30.388 51.496 30.324C51.16 30.276 50.992 30.252 50.992 30.252V27.468C50.992 27.468 51.08 27.476 51.256 27.492C51.432 27.524 51.624 27.54 51.832 27.54C52.632 27.54 53.168 27.364 53.44 27.012C53.712 26.66 53.848 26.14 53.848 25.452V12.78H57.496V25.548C57.496 26.012 57.44 26.524 57.328 27.084C57.216 27.644 57 28.18 56.68 28.692C56.36 29.204 55.88 29.62 55.24 29.94C54.616 30.26 53.784 30.42 52.744 30.42ZM65.7993 25.74C64.6793 25.74 63.7113 25.556 62.8953 25.188C62.0793 24.804 61.4073 24.3 60.8793 23.676C60.3513 23.036 59.9513 22.324 59.6793 21.54C59.4233 20.756 59.2953 19.948 59.2953 19.116C59.2953 18.316 59.4153 17.532 59.6552 16.764C59.9112 15.98 60.2953 15.268 60.8073 14.628C61.3353 13.988 61.9993 13.484 62.7993 13.116C63.6153 12.732 64.5753 12.54 65.6793 12.54C66.8473 12.54 67.8793 12.796 68.7753 13.308C69.6873 13.82 70.3993 14.58 70.9113 15.588C71.4233 16.58 71.6793 17.788 71.6793 19.212V20.1H62.9673C63.0153 20.868 63.2793 21.532 63.7593 22.092C64.2553 22.652 64.9353 22.932 65.7993 22.932C66.2953 22.932 66.6953 22.86 66.9993 22.716C67.3193 22.556 67.5673 22.38 67.7433 22.188C67.9193 21.98 68.0393 21.796 68.1033 21.636C68.1673 21.476 68.1993 21.396 68.1993 21.396H71.5593C71.5593 21.396 71.5193 21.548 71.4393 21.852C71.3753 22.14 71.2313 22.5 71.0073 22.932C70.7833 23.364 70.4553 23.796 70.0233 24.228C69.6073 24.66 69.0553 25.02 68.3673 25.308C67.6793 25.596 66.8233 25.74 65.7993 25.74ZM62.9673 17.892H68.1753C68.1273 17.012 67.8633 16.356 67.3833 15.924C66.9033 15.492 66.3113 15.276 65.6073 15.276C64.9033 15.276 64.3033 15.508 63.8073 15.972C63.3113 16.42 63.0313 17.06 62.9673 17.892ZM79.0328 25.74C78.0408 25.74 77.2488 25.596 76.6568 25.308C76.0648 25.004 75.6168 24.628 75.3128 24.18C75.0088 23.716 74.8088 23.228 74.7128 22.716C74.6168 22.204 74.5688 21.732 74.5688 21.3V15.684H72.4088V12.78H74.5688V9.636H78.2168V12.78H80.9288V15.684H78.2168V21.204C78.2168 21.732 78.3528 22.14 78.6248 22.428C78.9128 22.716 79.3848 22.86 80.0408 22.86C80.3288 22.86 80.5928 22.836 80.8328 22.788C81.0728 22.74 81.1928 22.716 81.1928 22.716V25.524C81.1928 25.524 80.9768 25.556 80.5448 25.62C80.1128 25.7 79.6088 25.74 79.0328 25.74ZM88.0203 25.74C86.9643 25.74 86.0923 25.596 85.4043 25.308C84.7163 25.02 84.1643 24.668 83.7483 24.252C83.3483 23.82 83.0443 23.396 82.8363 22.98C82.6443 22.548 82.5163 22.188 82.4523 21.9C82.4043 21.612 82.3803 21.468 82.3803 21.468H85.7643C85.7643 21.468 85.7883 21.548 85.8363 21.708C85.8843 21.868 85.9883 22.052 86.1483 22.26C86.3243 22.468 86.5723 22.652 86.8923 22.812C87.2123 22.972 87.6443 23.052 88.1883 23.052C88.8603 23.052 89.3163 22.916 89.5563 22.644C89.8123 22.372 89.9403 22.1 89.9403 21.828C89.9403 21.252 89.4683 20.868 88.5243 20.676L86.7963 20.34C86.0603 20.196 85.3643 19.988 84.7083 19.716C84.0683 19.428 83.5483 19.036 83.1483 18.54C82.7643 18.028 82.5723 17.372 82.5723 16.572C82.5723 15.804 82.7723 15.116 83.1723 14.508C83.5723 13.9 84.1403 13.42 84.8763 13.068C85.6283 12.716 86.5243 12.54 87.5643 12.54C88.5403 12.54 89.3483 12.676 89.9883 12.948C90.6443 13.204 91.1643 13.532 91.5483 13.932C91.9323 14.316 92.2203 14.708 92.4123 15.108C92.6043 15.492 92.7243 15.82 92.7723 16.092C92.8363 16.348 92.8683 16.476 92.8683 16.476H89.6043C89.6043 16.476 89.5563 16.372 89.4603 16.164C89.3643 15.94 89.1643 15.724 88.8603 15.516C88.5723 15.292 88.1243 15.18 87.5163 15.18C86.8923 15.18 86.4603 15.308 86.2203 15.564C85.9803 15.804 85.8603 16.06 85.8603 16.332C85.8603 16.652 85.9963 16.892 86.2683 17.052C86.5563 17.212 86.9243 17.34 87.3723 17.436L89.0283 17.772C90.2443 18.012 91.2443 18.436 92.0283 19.044C92.8123 19.636 93.2043 20.5 93.2043 21.636C93.2043 22.404 93.0043 23.1 92.6043 23.724C92.2043 24.348 91.6203 24.844 90.8523 25.212C90.0843 25.564 89.1403 25.74 88.0203 25.74ZM100.841 25.74C99.7211 25.74 98.7531 25.556 97.9371 25.188C97.1211 24.804 96.4491 24.3 95.9211 23.676C95.3931 23.036 94.9931 22.324 94.7211 21.54C94.4651 20.756 94.3371 19.948 94.3371 19.116C94.3371 18.316 94.4571 17.532 94.6971 16.764C94.9531 15.98 95.3371 15.268 95.8491 14.628C96.3771 13.988 97.0411 13.484 97.8411 13.116C98.6571 12.732 99.6171 12.54 100.721 12.54C101.889 12.54 102.921 12.796 103.817 13.308C104.729 13.82 105.441 14.58 105.953 15.588C106.465 16.58 106.721 17.788 106.721 19.212V20.1H98.0091C98.0571 20.868 98.3211 21.532 98.8011 22.092C99.2971 22.652 99.9771 22.932 100.841 22.932C101.337 22.932 101.737 22.86 102.041 22.716C102.361 22.556 102.609 22.38 102.785 22.188C102.961 21.98 103.081 21.796 103.145 21.636C103.209 21.476 103.241 21.396 103.241 21.396H106.601C106.601 21.396 106.561 21.548 106.481 21.852C106.417 22.14 106.273 22.5 106.049 22.932C105.825 23.364 105.497 23.796 105.065 24.228C104.649 24.66 104.097 25.02 103.409 25.308C102.721 25.596 101.865 25.74 100.841 25.74ZM98.0091 17.892H103.217C103.169 17.012 102.905 16.356 102.425 15.924C101.945 15.492 101.353 15.276 100.649 15.276C99.9451 15.276 99.3451 15.508 98.8491 15.972C98.3531 16.42 98.0731 17.06 98.0091 17.892ZM114.075 25.74C113.083 25.74 112.291 25.596 111.699 25.308C111.107 25.004 110.659 24.628 110.355 24.18C110.051 23.716 109.851 23.228 109.755 22.716C109.659 22.204 109.611 21.732 109.611 21.3V15.684H107.451V12.78H109.611V9.636H113.259V12.78H115.971V15.684H113.259V21.204C113.259 21.732 113.395 22.14 113.667 22.428C113.955 22.716 114.427 22.86 115.083 22.86C115.371 22.86 115.635 22.836 115.875 22.788C116.115 22.74 116.235 22.716 116.235 22.716V25.524C116.235 25.524 116.019 25.556 115.587 25.62C115.155 25.7 114.651 25.74 114.075 25.74Z" fill="#D7DFE4"/>
</svg>
