<svg width="115" height="20" viewBox="0 0 115 20" fill="none" xmlns="http://www.w3.org/2000/svg">
<path d="M15.704 9.936V13.452H5.228V9.936H15.704ZM19.196 15.48H20.492V19.5H11.612V15.48H13.82L9.536 2.64L11.648 5.496H9.296L11.144 2.64L6.86 15.48H9.26V19.5H0.8V15.48H2.168L7.556 1.14H13.82L19.196 15.48ZM27.6129 15.612H29.1849V19.5H21.1089V15.612H22.8129V4.428H21.1089V0.539999H27.6129V15.612ZM36.5266 14.424C36.5266 14.784 36.5866 15.052 36.7066 15.228C36.8266 15.396 36.9986 15.48 37.2226 15.48C37.4626 15.48 37.6426 15.392 37.7626 15.216C37.8826 15.04 37.9426 14.776 37.9426 14.424V13.188H41.9866V14.4C41.9866 15.48 41.8066 16.42 41.4466 17.22C41.0866 18.02 40.5266 18.64 39.7666 19.08C39.0066 19.52 38.0226 19.74 36.8146 19.74C35.6306 19.74 34.6626 19.52 33.9106 19.08C33.1666 18.632 32.6146 18.012 32.2546 17.22C31.9026 16.42 31.7266 15.488 31.7266 14.424V9.84H29.7226V5.94H31.7266V2.28H36.5266V5.94H41.9266L41.9026 9.84H36.5266V14.424ZM49.8626 15.612H51.3866V19.5H43.3586V15.612H45.0626V9.828H43.3586V5.94H49.8626V15.612ZM44.7866 0.623999H49.9466V4.512H44.7866V0.623999ZM58.3591 14.424C58.3591 14.784 58.4191 15.052 58.5391 15.228C58.6591 15.396 58.8311 15.48 59.0551 15.48C59.2951 15.48 59.4751 15.392 59.5951 15.216C59.7151 15.04 59.7751 14.776 59.7751 14.424V13.188H63.8191V14.4C63.8191 15.48 63.6391 16.42 63.2791 17.22C62.9191 18.02 62.3591 18.64 61.5991 19.08C60.8391 19.52 59.8551 19.74 58.6471 19.74C57.4631 19.74 56.4951 19.52 55.7431 19.08C54.9991 18.632 54.4471 18.012 54.0871 17.22C53.7351 16.42 53.5591 15.488 53.5591 14.424V9.84H51.5551V5.94H53.5591V2.28H58.3591V5.94H63.7591L63.7351 9.84H58.3591V14.424ZM75.0316 9.828H73.3636V5.94H79.8316V15.612H81.4756V19.5H75.0316V9.828ZM70.9636 5.94V13.956C70.9636 14.564 71.1116 15.052 71.4076 15.42C71.7036 15.78 72.1196 15.96 72.6556 15.96C73.0716 15.96 73.4596 15.84 73.8196 15.6C74.1796 15.352 74.4716 14.968 74.6956 14.448C74.9196 13.928 75.0316 13.26 75.0316 12.444L75.7396 15.552H74.8756C74.6756 16.968 74.2036 18.036 73.4596 18.756C72.7156 19.468 71.6876 19.824 70.3756 19.824C68.9596 19.824 67.9036 19.44 67.2076 18.672C66.5116 17.896 66.1636 16.824 66.1636 15.456V9.84H64.6036V5.94H70.9636ZM92.5286 19.5V14.28L92.6006 13.536V11.736L92.5286 9.552V4.428H90.4766V0.539999H97.3286V15.612H98.9846V19.5H92.5286ZM88.2446 5.664C89.1726 5.664 90.0486 5.872 90.8726 6.288C91.6966 6.704 92.4326 7.348 93.0806 8.22C93.7286 9.092 94.2446 10.204 94.6286 11.556L92.6006 12.708C92.6006 12.124 92.4926 11.612 92.2766 11.172C92.0686 10.732 91.7646 10.392 91.3646 10.152C90.9646 9.912 90.4806 9.792 89.9126 9.792C89.3606 9.792 88.8846 9.916 88.4846 10.164C88.0846 10.404 87.7766 10.744 87.5606 11.184C87.3446 11.616 87.2366 12.128 87.2366 12.72C87.2366 13.312 87.3446 13.828 87.5606 14.268C87.7846 14.708 88.0966 15.052 88.4966 15.3C88.9046 15.54 89.3766 15.66 89.9126 15.66C90.4726 15.66 90.9526 15.54 91.3526 15.3C91.7526 15.052 92.0606 14.708 92.2766 14.268C92.4926 13.82 92.6006 13.3 92.6006 12.708L92.9366 15.576H92.3726C92.2206 16.504 91.9686 17.28 91.6166 17.904C91.2726 18.528 90.8166 18.996 90.2486 19.308C89.6806 19.62 88.9846 19.776 88.1606 19.776C87.2326 19.776 86.4046 19.588 85.6766 19.212C84.9486 18.828 84.3326 18.308 83.8286 17.652C83.3246 16.988 82.9406 16.232 82.6766 15.384C82.4126 14.536 82.2806 13.648 82.2806 12.72C82.2806 11.248 82.5326 9.984 83.0366 8.928C83.5406 7.872 84.2406 7.064 85.1366 6.504C86.0326 5.944 87.0686 5.664 88.2446 5.664ZM107.414 19.8C105.846 19.8 104.49 19.504 103.346 18.912C102.202 18.32 101.318 17.496 100.694 16.44C100.078 15.384 99.7696 14.152 99.7696 12.744C99.7696 11.336 100.078 10.1 100.694 9.036C101.31 7.964 102.178 7.132 103.298 6.54C104.426 5.94 105.754 5.64 107.282 5.64C108.81 5.64 110.13 5.94 111.242 6.54C112.362 7.132 113.226 7.964 113.834 9.036C114.442 10.1 114.746 11.336 114.746 12.744C114.746 12.936 114.746 13.112 114.746 13.272C114.746 13.424 114.742 13.568 114.734 13.704H110.006C110.022 13.536 110.03 13.364 110.03 13.188C110.038 13.004 110.042 12.808 110.042 12.6C110.042 11.976 109.934 11.44 109.718 10.992C109.51 10.536 109.206 10.184 108.806 9.936C108.414 9.688 107.942 9.564 107.39 9.564C106.846 9.564 106.37 9.692 105.962 9.948C105.562 10.204 105.25 10.572 105.026 11.052C104.802 11.524 104.69 12.088 104.69 12.744C104.69 13.312 104.802 13.812 105.026 14.244C105.258 14.676 105.582 15.016 105.998 15.264C106.414 15.512 106.91 15.636 107.486 15.636C108.046 15.636 108.534 15.52 108.95 15.288C109.366 15.056 109.682 14.744 109.898 14.352L114.554 15.54C114.042 16.86 113.162 17.9 111.914 18.66C110.674 19.42 109.174 19.8 107.414 19.8ZM102.83 13.704V11.568H111.29L111.434 13.704H102.83Z" fill="#D7DFE4"/>
</svg>
