<svg width="165" height="23" viewBox="0 0 165 23" fill="none" xmlns="http://www.w3.org/2000/svg">
<path d="M4.708 22.5C4.01733 22.5 3.38267 22.332 2.804 21.996C2.244 21.6413 1.796 21.184 1.46 20.624C1.124 20.064 0.956 19.4387 0.956 18.748V12.7H14.116V10.124C14.116 9.97467 14.06 9.85333 13.948 9.76C13.8547 9.648 13.7333 9.592 13.584 9.592H0.956V6.26H13.696C14.4053 6.26 15.04 6.43733 15.6 6.792C16.16 7.128 16.608 7.576 16.944 8.136C17.28 8.696 17.448 9.32133 17.448 10.012V22.5H4.708ZM4.82 19.168H14.116V15.752H4.288V18.636C4.288 18.7853 4.33467 18.916 4.428 19.028C4.54 19.1213 4.67067 19.168 4.82 19.168ZM20.3974 22.5V6.26H23.7294V22.5H20.3974ZM20.3974 4.3V0.939999H23.7294V4.3H20.3974ZM26.9599 22.5V10.012C26.9599 9.32133 27.1279 8.696 27.4639 8.136C27.8186 7.576 28.2759 7.128 28.8359 6.792C29.4146 6.43733 30.0399 6.26 30.7119 6.26H39.7559V9.592H30.8239C30.6746 9.592 30.5439 9.648 30.4319 9.76C30.3386 9.85333 30.2919 9.97467 30.2919 10.124V22.5H26.9599ZM49.6802 22.5L40.7482 6.26H44.6122L51.3042 18.552L57.9962 6.26H61.8602L52.8722 22.5H49.6802ZM66.6136 22.5C65.9229 22.5 65.2976 22.332 64.7376 21.996C64.1776 21.6413 63.7203 21.184 63.3656 20.624C63.0296 20.064 62.8616 19.4387 62.8616 18.748V10.012C62.8616 9.32133 63.0296 8.696 63.3656 8.136C63.7203 7.576 64.1776 7.128 64.7376 6.792C65.2976 6.43733 65.9229 6.26 66.6136 6.26H75.6016C76.3109 6.26 76.9456 6.43733 77.5056 6.792C78.0656 7.128 78.5136 7.576 78.8496 8.136C79.1856 8.696 79.3536 9.32133 79.3536 10.012V16.06H66.1936V18.636C66.1936 18.7853 66.2403 18.916 66.3336 19.028C66.4456 19.1213 66.5763 19.168 66.7256 19.168H79.3536V22.5H66.6136ZM66.1936 13.008H76.0216V10.124C76.0216 9.97467 75.9656 9.85333 75.8536 9.76C75.7603 9.648 75.6389 9.592 75.4896 9.592H66.7256C66.5763 9.592 66.4456 9.648 66.3336 9.76C66.2403 9.85333 66.1936 9.97467 66.1936 10.124V13.008ZM82.3323 22.5V6.26H95.1003C95.7723 6.26 96.3883 6.43733 96.9483 6.792C97.527 7.128 97.9843 7.576 98.3203 8.136C98.6563 8.696 98.8243 9.32133 98.8243 10.012V22.5H95.4923V10.124C95.4923 9.97467 95.4363 9.85333 95.3243 9.76C95.231 9.648 95.119 9.592 94.9883 9.592H86.1963C86.0656 9.592 85.9443 9.648 85.8323 9.76C85.7203 9.85333 85.6643 9.97467 85.6643 10.124V22.5H82.3323ZM105.552 22.5C104.862 22.5 104.227 22.332 103.648 21.996C103.088 21.6413 102.64 21.184 102.304 20.624C101.968 20.064 101.8 19.4387 101.8 18.748V1.192H105.132V6.26H111.628V9.592H105.132V18.636C105.132 18.7853 105.179 18.916 105.272 19.028C105.384 19.1213 105.515 19.168 105.664 19.168H111.628V22.5H105.552ZM117.638 22.5C116.948 22.5 116.313 22.332 115.734 21.996C115.174 21.6413 114.726 21.184 114.39 20.624C114.054 20.064 113.886 19.4387 113.886 18.748V6.26H117.218V18.636C117.218 18.7853 117.265 18.916 117.358 19.028C117.47 19.1213 117.601 19.168 117.75 19.168H126.514C126.664 19.168 126.785 19.1213 126.878 19.028C126.99 18.916 127.046 18.7853 127.046 18.636V6.26H130.378V18.748C130.378 19.4387 130.21 20.064 129.874 20.624C129.538 21.184 129.09 21.6413 128.53 21.996C127.97 22.332 127.336 22.5 126.626 22.5H117.638ZM133.327 22.5V10.012C133.327 9.32133 133.495 8.696 133.831 8.136C134.186 7.576 134.643 7.128 135.203 6.792C135.782 6.43733 136.407 6.26 137.079 6.26H146.123V9.592H137.191C137.042 9.592 136.911 9.648 136.799 9.76C136.706 9.85333 136.659 9.97467 136.659 10.124V22.5H133.327ZM151.707 22.5C151.017 22.5 150.391 22.332 149.831 21.996C149.271 21.6413 148.814 21.184 148.459 20.624C148.123 20.064 147.955 19.4387 147.955 18.748V10.012C147.955 9.32133 148.123 8.696 148.459 8.136C148.814 7.576 149.271 7.128 149.831 6.792C150.391 6.43733 151.017 6.26 151.707 6.26H160.695C161.405 6.26 162.039 6.43733 162.599 6.792C163.159 7.128 163.607 7.576 163.943 8.136C164.279 8.696 164.447 9.32133 164.447 10.012V16.06H151.287V18.636C151.287 18.7853 151.334 18.916 151.427 19.028C151.539 19.1213 151.67 19.168 151.819 19.168H164.447V22.5H151.707ZM151.287 13.008H161.115V10.124C161.115 9.97467 161.059 9.85333 160.947 9.76C160.854 9.648 160.733 9.592 160.583 9.592H151.819C151.67 9.592 151.539 9.648 151.427 9.76C151.334 9.85333 151.287 9.97467 151.287 10.124V13.008Z" fill="#D7DFE4"/>
</svg>
