<svg width="112" height="33" viewBox="0 0 112 33" fill="none" xmlns="http://www.w3.org/2000/svg">
<path d="M10.6666 17.8333C10.6666 20.0312 11.5529 22.022 12.9876 23.4679C13.1259 23.6074 13.1951 23.6771 13.236 23.7442C13.2749 23.8081 13.2976 23.8632 13.315 23.9361C13.3332 24.0124 13.3332 24.0993 13.3332 24.2731V27.4333C13.3332 27.8067 13.3332 27.9934 13.4059 28.136C13.4698 28.2614 13.5718 28.3634 13.6973 28.4273C13.8399 28.5 14.0265 28.5 14.3999 28.5H16.9332C17.3066 28.5 17.4933 28.5 17.6359 28.4273C17.7613 28.3634 17.8633 28.2614 17.9273 28.136C17.9999 27.9934 17.9999 27.8067 17.9999 27.4333V26.9C17.9999 26.5266 17.9999 26.3399 18.0726 26.1973C18.1365 26.0719 18.2385 25.9699 18.3639 25.906C18.5065 25.8333 18.6932 25.8333 19.0666 25.8333H20.9332C21.3066 25.8333 21.4933 25.8333 21.6359 25.906C21.7613 25.9699 21.8633 26.0719 21.9273 26.1973C21.9999 26.3399 21.9999 26.5266 21.9999 26.9V27.4333C21.9999 27.8067 21.9999 27.9934 22.0726 28.136C22.1365 28.2614 22.2385 28.3634 22.3639 28.4273C22.5065 28.5 22.6932 28.5 23.0666 28.5H25.6C25.9734 28.5 26.1601 28.5 26.3027 28.4273C26.4281 28.3634 26.5301 28.2614 26.594 28.136C26.6667 27.9934 26.6667 27.8067 26.6667 27.4333V26.1324C26.6667 25.863 26.6667 25.7283 26.705 25.6202C26.7418 25.5165 26.7881 25.444 26.8666 25.367C26.9485 25.2867 27.0873 25.2222 27.3649 25.0934C28.6745 24.4854 29.7921 23.5334 30.6015 22.3536C30.7438 22.1461 30.815 22.0423 30.891 21.9811C30.9637 21.9225 31.0289 21.8881 31.1183 21.8613C31.2119 21.8333 31.3229 21.8333 31.545 21.8333H32.2667C32.64 21.8333 32.8267 21.8333 32.9693 21.7607C33.0948 21.6968 33.1968 21.5948 33.2607 21.4693C33.3333 21.3267 33.3333 21.14 33.3333 20.7667V16.2143C33.3333 15.8589 33.3333 15.6812 33.2673 15.544C33.2018 15.408 33.092 15.2982 32.956 15.2327C32.8189 15.1667 32.6411 15.1667 32.2857 15.1667C32.0284 15.1667 31.8997 15.1667 31.7961 15.1317C31.6844 15.0941 31.6061 15.044 31.525 14.9584C31.4498 14.879 31.3884 14.7462 31.2657 14.4806C30.8717 13.6283 30.3322 12.857 29.679 12.1987C29.5407 12.0593 29.4715 11.9896 29.4306 11.9225C29.3917 11.8585 29.369 11.8034 29.3516 11.7306C29.3333 11.6542 29.3333 11.5673 29.3333 11.3936V9.9141C29.3333 9.43404 29.3333 9.19401 29.2334 9.03267C29.1458 8.89134 29.0086 8.78784 28.8486 8.74246C28.666 8.69066 28.4352 8.7566 27.9736 8.88848L24.8102 9.79229C24.7565 9.80765 24.7296 9.81533 24.7023 9.82072C24.678 9.82551 24.6535 9.82895 24.6288 9.83101C24.6011 9.83333 24.5731 9.83333 24.5172 9.83333H23.9454M10.6666 17.8333C10.6666 14.7612 12.3982 12.0936 14.9386 10.7532M10.6666 17.8333H9.33334C7.86058 17.8333 6.66667 16.6394 6.66667 15.1667C6.66667 14.1796 7.20294 13.3178 8.00001 12.8568M24 9.16667C24 11.744 21.9107 13.8333 19.3333 13.8333C16.756 13.8333 14.6667 11.744 14.6667 9.16667C14.6667 6.58934 16.756 4.5 19.3333 4.5C21.9107 4.5 24 6.58934 24 9.16667Z" stroke="#D7DFE4" stroke-width="2.5" stroke-linecap="round" stroke-linejoin="round"/>
<path d="M48.192 18.304H44.448L43.648 24H40.544L42.592 9.472H50.176L49.824 11.968H45.344L44.768 15.936H48.512L48.192 18.304ZM53.6572 24H50.6812L52.8892 8.128L55.9292 7.712L53.6572 24ZM57.2121 26.592C58.1721 26.912 59.1001 27.072 59.9961 27.072C60.6361 27.072 61.0521 26.9867 61.2441 26.816C61.6495 26.4533 61.9268 25.8453 62.0761 24.992L62.4601 22.56H62.3961C61.2655 23.6907 60.1561 24.256 59.0681 24.256C57.9801 24.256 57.2655 23.936 56.9241 23.296C56.5828 22.6347 56.4975 21.632 56.6681 20.288L57.7561 12.672H60.7641L59.7721 19.552C59.6868 20.448 59.6761 20.992 59.7401 21.184C59.8895 21.504 60.1881 21.664 60.6361 21.664C61.1481 21.664 61.7348 21.3547 62.3961 20.736C62.5455 20.608 62.6628 20.512 62.7481 20.448L63.8361 12.672H66.8121L65.0841 24.928C64.8708 26.4213 64.3801 27.52 63.6121 28.224C62.8441 28.9493 61.7135 29.312 60.2201 29.312C59.1748 29.312 57.9801 29.088 56.6361 28.64L57.2121 26.592ZM74.0067 9.216C75.0307 9.216 75.788 9.312 76.2787 9.504C76.7694 9.696 77.1107 9.84533 77.3027 9.952C77.516 10.0587 77.676 10.1333 77.7827 10.176L76.7267 12.384L76.3107 12.16C75.436 11.7333 74.668 11.52 74.0067 11.52C73.452 11.52 72.9614 11.712 72.5347 12.096C72.1507 12.4587 71.9587 12.8 71.9587 13.12C71.8947 13.568 71.9694 13.952 72.1827 14.272C72.4174 14.592 72.716 14.8907 73.0787 15.168C73.4414 15.4453 73.836 15.7227 74.2627 16C74.7107 16.2773 75.1054 16.5973 75.4467 16.96C76.3 17.792 76.6307 18.8373 76.4387 20.096C76.268 21.3547 75.724 22.368 74.8067 23.136C73.8894 23.904 72.6307 24.288 71.0307 24.288C69.7294 24.288 68.5987 24.0213 67.6387 23.488C67.4467 23.36 67.2867 23.264 67.1587 23.2L68.1827 20.992C68.2894 21.0347 68.428 21.1093 68.5987 21.216C68.7907 21.3227 69.004 21.4187 69.2387 21.504C69.836 21.76 70.3907 21.888 70.9027 21.888C71.8414 21.888 72.5454 21.568 73.0147 20.928C73.164 20.736 73.26 20.4693 73.3027 20.128C73.3667 19.7653 73.2814 19.4453 73.0467 19.168C72.812 18.8693 72.5134 18.592 72.1507 18.336C71.788 18.0587 71.3934 17.7813 70.9667 17.504C70.54 17.2053 70.1454 16.8747 69.7827 16.512C68.9507 15.68 68.62 14.6347 68.7907 13.376C68.9614 12.096 69.5054 11.0827 70.4227 10.336C71.34 9.58933 72.5347 9.216 74.0067 9.216ZM85.5848 14.816C85.2008 14.7733 84.6995 14.752 84.0808 14.752C83.4621 14.752 82.9395 15.008 82.5128 15.52C82.1075 16.032 81.8088 16.96 81.6168 18.304C81.4461 19.6267 81.4568 20.5333 81.6488 21.024C81.8621 21.5147 82.2675 21.76 82.8648 21.76C83.2275 21.76 83.5795 21.6533 83.9208 21.44C84.2835 21.2053 84.5715 20.96 84.7848 20.704L85.5848 14.816ZM84.7848 22.656C83.5688 23.744 82.3848 24.288 81.2328 24.288C79.5688 24.288 78.6195 23.2533 78.3848 21.184C78.2995 20.4587 78.3315 19.5627 78.4808 18.496C78.6301 17.408 78.8861 16.48 79.2488 15.712C79.6115 14.944 80.0381 14.3147 80.5288 13.824C81.4461 12.928 82.5875 12.48 83.9528 12.48C85.5741 12.48 87.2061 12.64 88.8488 12.96L87.2808 24H84.7848V22.656ZM97.1417 10.016C96.8857 9.888 96.5124 9.824 96.0217 9.824C95.5524 9.824 95.2324 9.97333 95.0617 10.272C94.8911 10.5493 94.7524 11.0507 94.6457 11.776L94.5177 12.672H96.5657L96.2137 14.848H94.2297L92.2137 29.024H89.2377L91.2537 14.848H90.0377L90.3257 12.672H91.5097L91.7017 11.36C91.8937 9.97333 92.2671 8.98133 92.8217 8.384C93.3977 7.76533 94.1124 7.456 94.9657 7.456C96.0751 7.456 96.9284 7.60533 97.5257 7.904C97.4404 8.544 97.3124 9.248 97.1417 10.016ZM104.337 17.376C104.486 16.288 104.454 15.5413 104.241 15.136C104.027 14.7307 103.718 14.528 103.313 14.528C102.929 14.528 102.534 14.7413 102.129 15.168C101.745 15.5733 101.478 16.3093 101.329 17.376H104.337ZM102.929 22.016C103.867 22.016 104.806 21.7493 105.745 21.216L106.065 23.2C105.553 23.584 104.699 23.8933 103.505 24.128C103.057 24.2347 102.545 24.288 101.969 24.288C101.393 24.288 100.827 24.1813 100.273 23.968C99.7394 23.7547 99.302 23.424 98.9607 22.976C98.1714 21.952 97.9154 20.512 98.1927 18.656C98.47 16.6507 99.1314 15.0827 100.177 13.952C101.158 12.928 102.31 12.416 103.633 12.416C105.638 12.416 106.822 13.376 107.185 15.296C107.377 16.2987 107.302 17.4507 106.961 18.752C106.897 19.0293 106.843 19.1893 106.801 19.232H101.073C100.923 20.2133 101.03 20.928 101.393 21.376C101.777 21.8027 102.289 22.016 102.929 22.016Z" fill="#D7DFE4"/>
</svg>
