<svg width="156" height="33" viewBox="0 0 156 33" fill="none" xmlns="http://www.w3.org/2000/svg">
<path d="M2.66666 3.16675L5.33332 5.83341M29.3333 3.16675L26.6667 5.83341M29.3333 29.8334L26.6667 27.1667M2.66666 29.8334L5.33332 27.1667M2.66666 21.8334H4.66666M10.6667 3.16675V5.16675M29.3333 11.1667H27.3333M21.3333 29.8334V27.8334M24 21.8334H28.6667M21.3333 3.16675V8.50008M2.66666 11.1667H7.99999M10.6667 29.8334V24.5001M15.2457 10.5877L10.0876 15.7458C9.82356 16.0098 9.69155 16.1419 9.64209 16.2941C9.59859 16.428 9.59859 16.5722 9.64209 16.7061C9.69155 16.8583 9.82356 16.9903 10.0876 17.2543L15.2457 22.4125C15.5097 22.6765 15.6418 22.8085 15.794 22.858C15.9279 22.9015 16.0721 22.9015 16.206 22.858C16.3582 22.8085 16.4902 22.6765 16.7542 22.4125L21.9124 17.2543C22.1764 16.9903 22.3084 16.8583 22.3579 16.7061C22.4014 16.5722 22.4014 16.428 22.3579 16.2941C22.3084 16.1419 22.1764 16.0098 21.9124 15.7458L16.7542 10.5877C16.4902 10.3237 16.3582 10.1916 16.206 10.1422C16.0721 10.0987 15.9279 10.0987 15.794 10.1422C15.6418 10.1916 15.5098 10.3237 15.2457 10.5877Z" stroke="#D7DFE4" stroke-width="2" stroke-linecap="round" stroke-linejoin="round"/>
<path d="M42.2266 24.5V8.79688H52.9375V11.7266H45.4844V24.5H42.2266ZM43.9609 18.6172V15.6875H51.6484V18.6172H43.9609ZM55.1416 24.5V7.625H58.1181V24.5H55.1416ZM63.2284 10.5312C62.6659 10.5312 62.1816 10.3281 61.7753 9.92188C61.3691 9.51562 61.1659 9.04688 61.1659 8.51562C61.1659 7.95312 61.3691 7.47656 61.7753 7.08594C62.1816 6.69531 62.6659 6.5 63.2284 6.5C63.6034 6.5 63.9472 6.59375 64.2597 6.78125C64.5722 6.95313 64.8222 7.19531 65.0097 7.50781C65.1972 7.80469 65.2909 8.14062 65.2909 8.51562C65.2909 8.85938 65.1972 9.1875 65.0097 9.5C64.8222 9.8125 64.5722 10.0625 64.2597 10.25C63.9472 10.4375 63.6034 10.5312 63.2284 10.5312ZM62.0331 24.5V12.6641H65.0097V24.5H62.0331ZM60.1347 15.1953V12.6641H65.0097V15.1953H60.1347ZM72.4872 30.4766C71.7997 30.4766 71.1903 30.3984 70.6591 30.2422C70.1434 30.1016 69.6747 29.9141 69.2528 29.6797C68.8309 29.4453 68.4247 29.1953 68.0341 28.9297V26.1172C68.3934 26.3359 68.7684 26.5703 69.1591 26.8203C69.5653 27.0703 70.0263 27.2812 70.5419 27.4531C71.0575 27.625 71.6434 27.7109 72.2997 27.7109C73.0184 27.7109 73.6513 27.5781 74.1981 27.3125C74.7606 27.0469 75.1981 26.6719 75.5106 26.1875C75.8388 25.7188 76.0028 25.1797 76.0028 24.5703V22.5078C75.6591 23.1484 75.1591 23.7031 74.5028 24.1719C73.8466 24.625 73.0809 24.8516 72.2059 24.8516C71.2684 24.8516 70.3934 24.6094 69.5809 24.125C68.7841 23.6406 68.1356 22.9375 67.6356 22.0156C67.1513 21.0938 66.9091 19.9766 66.9091 18.6641C66.9091 17.3359 67.1513 16.2031 67.6356 15.2656C68.1356 14.3281 68.7997 13.6094 69.6278 13.1094C70.4716 12.6094 71.4013 12.3594 72.4169 12.3594C73.0731 12.3594 73.7216 12.5078 74.3622 12.8047C75.0184 13.1016 75.5653 13.5 76.0028 14V12.6641H78.9794V24.1953C78.9794 25.5234 78.6825 26.6562 78.0888 27.5938C77.495 28.5312 76.7059 29.2422 75.7216 29.7266C74.7372 30.2266 73.6591 30.4766 72.4872 30.4766ZM72.9559 21.8516C73.4872 21.8516 73.9794 21.7188 74.4325 21.4531C74.9013 21.1719 75.2763 20.7734 75.5575 20.2578C75.8544 19.7422 76.0028 19.1328 76.0028 18.4297V16.7422C75.5809 16.2891 75.12 15.9375 74.62 15.6875C74.1356 15.4219 73.6044 15.2891 73.0263 15.2891C72.4013 15.2891 71.8622 15.4453 71.4091 15.7578C70.9716 16.0703 70.6278 16.4844 70.3778 17C70.1278 17.5156 70.0028 18.0703 70.0028 18.6641C70.0028 19.2422 70.1278 19.7734 70.3778 20.2578C70.6278 20.7422 70.9716 21.1328 71.4091 21.4297C71.8622 21.7109 72.3778 21.8516 72.9559 21.8516ZM89.5037 24.5L89.4803 17.6328C89.4803 16.8359 89.285 16.2422 88.8944 15.8516C88.5194 15.4609 87.9959 15.2656 87.3241 15.2656C86.7928 15.2656 86.3006 15.4375 85.8475 15.7812C85.3944 16.125 84.9959 16.5312 84.6522 17V14.3516C84.9022 14.0234 85.1991 13.7109 85.5428 13.4141C85.9022 13.1016 86.3084 12.8516 86.7616 12.6641C87.2147 12.4609 87.7069 12.3594 88.2381 12.3594C89.0506 12.3594 89.7772 12.5391 90.4178 12.8984C91.0584 13.2578 91.5584 13.8047 91.9178 14.5391C92.2928 15.2578 92.4803 16.1562 92.4803 17.2344V24.5H89.5037ZM81.6756 24.5V7.625H84.6522V24.5H81.6756ZM99.8406 24.8516C99.1375 24.8516 98.4969 24.6953 97.9188 24.3828C97.3563 24.0703 96.9109 23.6328 96.5828 23.0703C96.2547 22.4922 96.0906 21.8125 96.0906 21.0312V15.1484H94.1219V13.625C94.8875 13.3594 95.5125 12.8672 95.9969 12.1484C96.4969 11.4297 96.9344 10.5312 97.3094 9.45312H99.0672V12.6641H102.63V15.1484H99.0672V20.2578C99.0672 20.7891 99.2 21.2109 99.4656 21.5234C99.7469 21.8203 100.153 21.9688 100.684 21.9688C101.153 21.9688 101.559 21.8984 101.903 21.7578C102.247 21.6172 102.552 21.4688 102.817 21.3125V23.8438C102.536 24.1406 102.138 24.3828 101.622 24.5703C101.122 24.7578 100.528 24.8516 99.8406 24.8516ZM105.185 24.5V8.79688H111.678C112.412 8.79688 113.131 8.92969 113.834 9.19531C114.537 9.46094 115.17 9.85156 115.732 10.3672C116.31 10.8672 116.763 11.4844 117.092 12.2188C117.435 12.9375 117.607 13.7656 117.607 14.7031C117.607 15.8438 117.334 16.8438 116.787 17.7031C116.256 18.5469 115.545 19.2109 114.654 19.6953C113.763 20.1641 112.795 20.3984 111.748 20.3984C110.904 20.3984 110.17 20.3203 109.545 20.1641C108.92 20.0078 108.42 19.8125 108.045 19.5781V16.9062C108.388 17.0781 108.842 17.2422 109.404 17.3984C109.982 17.5391 110.584 17.6094 111.209 17.6094C112.146 17.6094 112.888 17.3516 113.435 16.8359C113.998 16.3047 114.279 15.5938 114.279 14.7031C114.279 14.0625 114.131 13.5391 113.834 13.1328C113.553 12.7109 113.17 12.3906 112.685 12.1719C112.217 11.9531 111.701 11.8438 111.138 11.8438H108.443V24.5H105.185ZM123.889 24.8516C122.952 24.8516 122.077 24.6094 121.264 24.125C120.467 23.6406 119.819 22.9375 119.319 22.0156C118.835 21.0938 118.592 19.9766 118.592 18.6641C118.592 17.3359 118.835 16.2031 119.319 15.2656C119.819 14.3281 120.483 13.6094 121.311 13.1094C122.155 12.6094 123.085 12.3594 124.1 12.3594C124.757 12.3594 125.405 12.5078 126.046 12.8047C126.702 13.1016 127.249 13.5 127.686 14V12.6641H130.663V24.5H127.686V22.5078C127.342 23.1484 126.842 23.7031 126.186 24.1719C125.53 24.625 124.764 24.8516 123.889 24.8516ZM124.639 21.875C125.171 21.875 125.663 21.7344 126.116 21.4531C126.585 21.1719 126.967 20.7734 127.264 20.2578C127.561 19.7422 127.702 19.1328 127.686 18.4297V16.7422C127.264 16.2891 126.803 15.9297 126.303 15.6641C125.819 15.3984 125.288 15.2656 124.71 15.2656C124.085 15.2656 123.546 15.4297 123.092 15.7578C122.655 16.0703 122.311 16.4844 122.061 17C121.811 17.5156 121.686 18.0703 121.686 18.6641C121.686 19.2422 121.811 19.7812 122.061 20.2812C122.311 20.7656 122.655 21.1562 123.092 21.4531C123.546 21.7344 124.061 21.875 124.639 21.875ZM138.257 24.8516C137.554 24.8516 136.914 24.6953 136.336 24.3828C135.773 24.0703 135.328 23.6328 135 23.0703C134.672 22.4922 134.507 21.8125 134.507 21.0312V15.1484H132.539V13.625C133.304 13.3594 133.929 12.8672 134.414 12.1484C134.914 11.4297 135.351 10.5312 135.726 9.45312H137.484V12.6641H141.047V15.1484H137.484V20.2578C137.484 20.7891 137.617 21.2109 137.882 21.5234C138.164 21.8203 138.57 21.9688 139.101 21.9688C139.57 21.9688 139.976 21.8984 140.32 21.7578C140.664 21.6172 140.968 21.4688 141.234 21.3125V23.8438C140.953 24.1406 140.554 24.3828 140.039 24.5703C139.539 24.7578 138.945 24.8516 138.257 24.8516ZM151.149 24.5L151.126 17.6328C151.126 16.8359 150.93 16.2422 150.54 15.8516C150.165 15.4609 149.641 15.2656 148.969 15.2656C148.438 15.2656 147.946 15.4375 147.493 15.7812C147.04 16.125 146.641 16.5312 146.298 17V14.3516C146.548 14.0234 146.844 13.7109 147.188 13.4141C147.548 13.1016 147.954 12.8516 148.407 12.6641C148.86 12.4609 149.352 12.3594 149.883 12.3594C150.696 12.3594 151.423 12.5391 152.063 12.8984C152.704 13.2578 153.204 13.8047 153.563 14.5391C153.938 15.2578 154.126 16.1562 154.126 17.2344V24.5H151.149ZM143.321 24.5V7.625H146.298V24.5H143.321Z" fill="#D7DFE4"/>
</svg>
