<svg width="130" height="20" viewBox="0 0 130 20" fill="none" xmlns="http://www.w3.org/2000/svg">
<path d="M5.46875 19.7812C4.57292 19.7812 3.64583 19.6771 2.6875 19.4688C1.75 19.2396 0.989583 18.9583 0.40625 18.625L0.25 14.75L1.40625 14.625L2.21875 17.2812C2.73958 17.6146 3.3125 17.875 3.9375 18.0625C4.5625 18.25 5.23958 18.3438 5.96875 18.3438C7.01042 18.3438 7.85417 18.0833 8.5 17.5625C9.16667 17.0417 9.5 16.3229 9.5 15.4062C9.5 14.6562 9.28125 14.0417 8.84375 13.5625C8.40625 13.0625 7.83333 12.625 7.125 12.25C6.4375 11.875 5.69792 11.5104 4.90625 11.1562C4.13542 10.7812 3.39583 10.375 2.6875 9.9375C2 9.47917 1.42708 8.92708 0.96875 8.28125C0.53125 7.61458 0.3125 6.80208 0.3125 5.84375C0.3125 4.86458 0.583333 4 1.125 3.25C1.6875 2.5 2.44792 1.91667 3.40625 1.5C4.36458 1.0625 5.45833 0.84375 6.6875 0.84375C7.25 0.84375 7.77083 0.875 8.25 0.9375C8.75 0.979167 9.20833 1.05208 9.625 1.15625C10.0625 1.26042 10.4479 1.38542 10.7812 1.53125L11 5.25L9.84375 5.375L9 2.875C8.35417 2.4375 7.46875 2.21875 6.34375 2.21875C5.23958 2.21875 4.35417 2.48958 3.6875 3.03125C3.02083 3.57292 2.6875 4.27083 2.6875 5.125C2.6875 5.89583 2.90625 6.54167 3.34375 7.0625C3.80208 7.58333 4.375 8.04167 5.0625 8.4375C5.77083 8.8125 6.51042 9.1875 7.28125 9.5625C8.07292 9.91667 8.8125 10.3229 9.5 10.7812C10.2083 11.2188 10.7812 11.75 11.2188 12.375C11.6771 13 11.9062 13.7708 11.9062 14.6875C11.9062 15.6667 11.625 16.5417 11.0625 17.3125C10.5208 18.0833 9.76042 18.6875 8.78125 19.125C7.82292 19.5625 6.71875 19.7812 5.46875 19.7812ZM26.4513 19.5L26.3888 18.4062L28.3575 18.0938C28.1908 17.8646 27.9929 17.6146 27.7638 17.3438C27.5554 17.0729 27.3263 16.8021 27.0763 16.5312L22.0138 10.875H20.7013V9.8125L22.4513 9.34375L28.8888 2.65625L26.9825 2.25L27.045 1.15625H32.795L32.8263 2.3125L31.1075 2.625L23.3888 10L23.545 9.1875L29.4825 15.6875C29.795 16.0208 30.0763 16.3333 30.3263 16.625C30.5971 16.9167 30.8367 17.1771 31.045 17.4062C31.2533 17.6354 31.4408 17.8229 31.6075 17.9688L33.17 18.375V19.5H26.4513ZM16.8263 19.5L16.7325 18.4062L18.6388 18C18.6804 17.8333 18.7117 17.3854 18.7325 16.6562C18.7533 15.9062 18.7638 14.8438 18.7638 13.4688V7.21875C18.7638 6.26042 18.7533 5.45833 18.7325 4.8125C18.7325 4.16667 18.7221 3.66667 18.7013 3.3125C18.7013 2.95833 18.6804 2.73958 18.6388 2.65625L16.7325 2.25L16.795 1.15625H22.9825L23.045 2.25L21.1388 2.65625C21.1179 2.71875 21.0867 2.91667 21.045 3.25C21.0242 3.5625 21.0033 4.04167 20.9825 4.6875C20.9825 5.33333 20.9825 6.17708 20.9825 7.21875V13.4688C20.9825 14.8438 20.9929 15.9062 21.0138 16.6562C21.0346 17.3854 21.0554 17.8333 21.0763 18L23.0763 18.4062L22.9825 19.5H16.8263ZM48.465 2.65625L42.1213 12.375L42.7463 10.5312V13.4688C42.7463 14.3438 42.7463 15.0729 42.7463 15.6562C42.7671 16.2188 42.7775 16.6667 42.7775 17C42.7983 17.3125 42.8088 17.5417 42.8088 17.6875C42.8296 17.8333 42.84 17.9375 42.84 18L45.0275 18.375L44.965 19.5H38.3088L38.215 18.375L40.4025 18C40.4233 17.9375 40.4338 17.8333 40.4338 17.6875C40.4546 17.5417 40.4754 17.3125 40.4963 17C40.5171 16.6667 40.5275 16.2188 40.5275 15.6562C40.5483 15.0729 40.5588 14.3438 40.5588 13.4688V10.5312L41.0588 12.375L34.9025 2.65625L33.34 2.25L33.3713 1.15625H39.3713L39.465 2.25L37.5588 2.65625L42.34 10.1875H41.9963L46.5275 2.65625L44.34 2.25L44.4025 1.15625H49.965L50.0275 2.25L48.465 2.65625ZM67.5725 1.03125L68.26 5.96875L67.0412 6.125L65.6975 2.625C65.5517 2.58333 65.3746 2.5625 65.1662 2.5625C64.9579 2.54167 64.7704 2.53125 64.6037 2.53125H63.4787C63.2704 2.53125 62.9683 2.53125 62.5725 2.53125C62.1767 2.53125 61.8121 2.54167 61.4787 2.5625C61.4787 2.72917 61.4683 3.11458 61.4475 3.71875C61.4475 4.32292 61.4475 5.02083 61.4475 5.8125C61.4475 6.60417 61.4475 7.35417 61.4475 8.0625V12.625C61.4475 14 61.4579 15.1771 61.4787 16.1562C61.4996 17.1354 61.51 17.75 61.51 18L64.135 18.3438L64.0725 19.5H56.6037L56.5412 18.3438L59.135 18C59.135 17.75 59.1454 17.1354 59.1662 16.1562C59.1871 15.1771 59.1975 14 59.1975 12.625V8.0625C59.1975 7.35417 59.1975 6.60417 59.1975 5.8125C59.1975 5.02083 59.1975 4.32292 59.1975 3.71875C59.1975 3.11458 59.1871 2.72917 59.1662 2.5625C58.8537 2.54167 58.4996 2.53125 58.1037 2.53125C57.7287 2.53125 57.4267 2.53125 57.1975 2.53125H55.9787C55.8121 2.53125 55.635 2.54167 55.4475 2.5625C55.26 2.5625 55.0933 2.58333 54.9475 2.625L53.6037 6.15625L52.385 5.96875L53.0725 1.03125C53.3225 1.05208 53.5517 1.07292 53.76 1.09375C53.9892 1.11458 54.2079 1.13542 54.4162 1.15625C54.6246 1.15625 54.8329 1.15625 55.0412 1.15625C55.2496 1.15625 55.4683 1.15625 55.6975 1.15625H64.9162C65.1662 1.15625 65.385 1.15625 65.5725 1.15625C65.7808 1.15625 65.9892 1.15625 66.1975 1.15625C66.4058 1.13542 66.6142 1.11458 66.8225 1.09375C67.0517 1.07292 67.3017 1.05208 67.5725 1.03125ZM85.6175 19.6562C84.9925 19.5729 84.5029 19.5208 84.1488 19.5C83.7946 19.5 83.4404 19.5 83.0863 19.5H72.3675L72.305 18.4062L74.18 18C74.2217 17.8958 74.2425 17.6667 74.2425 17.3125C74.2633 16.9583 74.2738 16.4583 74.2738 15.8125C74.2946 15.1667 74.305 14.3854 74.305 13.4688V7.21875C74.305 6.28125 74.2946 5.48958 74.2738 4.84375C74.2738 4.17708 74.2633 3.66667 74.2425 3.3125C74.2425 2.95833 74.2217 2.73958 74.18 2.65625L72.305 2.25L72.3675 1.15625H82.5238C82.7738 1.15625 83.0238 1.15625 83.2738 1.15625C83.5238 1.15625 83.7946 1.14583 84.0863 1.125C84.3988 1.10417 84.7738 1.07292 85.2113 1.03125L85.7738 5.03125L84.4613 5.21875L83.4613 2.65625C83.3363 2.61458 83.1696 2.59375 82.9613 2.59375C82.7529 2.57292 82.5342 2.5625 82.305 2.5625H78.43C78.0342 2.5625 77.6904 2.57292 77.3988 2.59375C77.1279 2.59375 76.8467 2.61458 76.555 2.65625C76.555 2.73958 76.5446 2.97917 76.5238 3.375C76.5238 3.75 76.5133 4.1875 76.4925 4.6875C76.4925 5.1875 76.4925 5.65625 76.4925 6.09375V15.0625C76.4925 15.4167 76.4925 15.7917 76.4925 16.1875C76.5133 16.5833 76.5238 16.9479 76.5238 17.2812C76.5446 17.5938 76.555 17.8021 76.555 17.9062C76.8258 17.9271 77.1071 17.9479 77.3988 17.9688C77.6904 17.9896 78.0029 18 78.3363 18H81.7425C82.18 18 82.5446 18 82.8363 18C83.1488 17.9792 83.3883 17.9583 83.555 17.9375C83.7425 17.9167 83.8779 17.8958 83.9613 17.875L85.5863 14.9688L86.8675 15.2188L85.6175 19.6562ZM82.305 13.0625L81.8988 10.9062C81.7946 10.8646 81.6279 10.8333 81.3988 10.8125C81.1696 10.7917 80.8883 10.7812 80.555 10.7812H77.9925C77.7425 10.7812 77.4508 10.7917 77.1175 10.8125C76.805 10.8333 76.4613 10.8542 76.0863 10.875V9.28125C76.4613 9.30208 76.805 9.32292 77.1175 9.34375C77.4508 9.34375 77.7425 9.34375 77.9925 9.34375H80.555C80.8883 9.34375 81.1696 9.33333 81.3988 9.3125C81.6279 9.29167 81.7946 9.27083 81.8988 9.25L82.305 7.0625H83.5238V13.0625H82.305ZM101.1 19.7812C99.3708 19.7812 97.7667 19.4375 96.2875 18.75C94.8083 18.0625 93.6104 17.0208 92.6937 15.625C91.7979 14.2292 91.35 12.4896 91.35 10.4062C91.35 9.15625 91.5687 7.95833 92.0062 6.8125C92.4437 5.66667 93.0896 4.65625 93.9437 3.78125C94.7979 2.88542 95.85 2.17708 97.1 1.65625C98.3708 1.13542 99.8292 0.875 101.475 0.875C102.287 0.875 103.173 0.958333 104.131 1.125C105.09 1.27083 105.954 1.5 106.725 1.8125L106.944 5.96875L105.694 6.09375L104.787 3.21875C104.392 2.92708 103.84 2.70833 103.131 2.5625C102.444 2.41667 101.798 2.34375 101.194 2.34375C99.5271 2.34375 98.1729 2.69792 97.1312 3.40625C96.0896 4.11458 95.3292 5.05208 94.85 6.21875C94.3917 7.36458 94.1625 8.60417 94.1625 9.9375C94.1625 11.75 94.475 13.2812 95.1 14.5312C95.7458 15.7604 96.6104 16.6979 97.6937 17.3438C98.7771 17.9688 99.9854 18.2812 101.319 18.2812C102.027 18.2812 102.642 18.2083 103.162 18.0625C103.683 17.9167 104.215 17.7083 104.756 17.4375L106.225 14.4688L107.475 14.5938L106.6 18.4688C105.85 18.8229 105.006 19.1354 104.069 19.4062C103.152 19.6562 102.162 19.7812 101.1 19.7812ZM123.239 19.5L123.176 18.4062L125.082 18C125.124 17.9167 125.155 17.7292 125.176 17.4375C125.197 17.125 125.207 16.6458 125.207 16C125.228 15.3542 125.239 14.5104 125.239 13.4688V7.21875C125.239 6.13542 125.228 5.28125 125.207 4.65625C125.207 4.01042 125.197 3.53125 125.176 3.21875C125.155 2.90625 125.124 2.71875 125.082 2.65625L123.176 2.25L123.239 1.15625H129.489L129.551 2.25L127.645 2.65625C127.603 2.71875 127.562 2.90625 127.52 3.21875C127.499 3.51042 127.478 3.97917 127.457 4.625C127.457 5.25 127.457 6.11458 127.457 7.21875V13.4688C127.457 14.5312 127.457 15.3854 127.457 16.0312C127.478 16.6562 127.499 17.125 127.52 17.4375C127.562 17.7292 127.603 17.9167 127.645 18L129.551 18.4062L129.489 19.5H123.239ZM111.926 19.5L111.864 18.4062L113.77 18C113.812 17.8958 113.832 17.6667 113.832 17.3125C113.853 16.9583 113.864 16.4688 113.864 15.8438C113.885 15.1979 113.895 14.4062 113.895 13.4688V7.21875C113.895 6.26042 113.885 5.45833 113.864 4.8125C113.864 4.16667 113.853 3.66667 113.832 3.3125C113.832 2.95833 113.812 2.73958 113.77 2.65625L111.864 2.25L111.926 1.15625H118.114L118.176 2.25L116.27 2.65625C116.249 2.71875 116.218 2.90625 116.176 3.21875C116.155 3.53125 116.135 4.01042 116.114 4.65625C116.114 5.28125 116.114 6.13542 116.114 7.21875V13.4688C116.114 14.5104 116.114 15.3542 116.114 16C116.135 16.6458 116.155 17.125 116.176 17.4375C116.218 17.7292 116.249 17.9167 116.27 18L118.176 18.4062L118.114 19.5H111.926ZM115.801 10.9062V9.21875C116.197 9.23958 116.812 9.26042 117.645 9.28125C118.499 9.30208 119.53 9.3125 120.739 9.3125C121.905 9.3125 122.905 9.30208 123.739 9.28125C124.572 9.26042 125.166 9.23958 125.52 9.21875V10.9062C125.041 10.8646 124.416 10.8333 123.645 10.8125C122.895 10.7917 121.926 10.7812 120.739 10.7812C119.489 10.7812 118.468 10.7917 117.676 10.8125C116.905 10.8333 116.28 10.8646 115.801 10.9062Z" fill="#D7DFE4"/>
</svg>
