<svg width="155" height="17" viewBox="0 0 155 17" fill="none" xmlns="http://www.w3.org/2000/svg">
<path d="M0.351562 16.5L7.47656 0.5625H9.67969L16.8047 16.5H11.6953L8.57812 7.64062L5.46094 16.5H0.351562ZM3.89062 14.1562V10.875H12.8203V14.1562H3.89062ZM23.6025 16.8516C22.7588 16.8516 21.9384 16.7109 21.1416 16.4297C20.3603 16.1484 19.6572 15.7422 19.0322 15.2109C18.4072 14.6797 17.915 14.0391 17.5556 13.2891C17.1963 12.5234 17.0166 11.6641 17.0166 10.7109C17.0166 9.52344 17.29 8.4375 17.8369 7.45312C18.3994 6.46875 19.1572 5.67969 20.1103 5.08594C21.0791 4.49219 22.165 4.19531 23.3681 4.19531C24.4931 4.19531 25.4931 4.44531 26.3681 4.94531C27.2431 5.44531 27.9228 6.14844 28.4072 7.05469C28.9072 7.94531 29.1572 9.00781 29.1572 10.2422V11.625H20.6963V9.1875H25.3369C25.3369 8.8125 25.2353 8.5 25.0322 8.25C24.8291 8 24.5713 7.82031 24.2588 7.71094C23.9463 7.58594 23.6103 7.52344 23.2509 7.52344C22.7822 7.52344 22.3681 7.64062 22.0088 7.875C21.665 8.09375 21.3916 8.4375 21.1884 8.90625C20.9853 9.375 20.8838 9.97656 20.8838 10.7109C20.8838 11.3047 21.0088 11.7969 21.2588 12.1875C21.5244 12.5781 21.8838 12.8672 22.3369 13.0547C22.79 13.2422 23.29 13.3359 23.8369 13.3359C24.7431 13.3359 25.5244 13.2109 26.1806 12.9609C26.8525 12.6953 27.3525 12.4688 27.6806 12.2812V15.7266C27.415 15.8984 27.0713 16.0703 26.6494 16.2422C26.2431 16.4141 25.7822 16.5547 25.2666 16.6641C24.7509 16.7891 24.1963 16.8516 23.6025 16.8516ZM30.4237 16.5V4.54688H34.455V16.5H30.4237ZM34.455 10.3594V6.67969C34.83 6.03906 35.2441 5.48438 35.6972 5.01562C36.1659 4.54688 36.7753 4.3125 37.5253 4.3125C37.9316 4.3125 38.2831 4.38281 38.58 4.52344V8.97656C38.3456 8.85156 38.0956 8.75781 37.83 8.69531C37.58 8.61719 37.2831 8.57812 36.9394 8.57812C36.3925 8.57812 35.9081 8.74219 35.4862 9.07031C35.0644 9.39844 34.7206 9.82812 34.455 10.3594ZM45.4716 16.8516C44.6434 16.8516 43.8387 16.6953 43.0575 16.3828C42.2762 16.0703 41.5731 15.6328 40.9481 15.0703C40.3231 14.5078 39.8231 13.8438 39.4481 13.0781C39.0887 12.2969 38.9091 11.4453 38.9091 10.5234C38.9091 9.60156 39.0887 8.75781 39.4481 7.99219C39.8231 7.21094 40.3231 6.53906 40.9481 5.97656C41.5731 5.41406 42.2762 4.97656 43.0575 4.66406C43.8387 4.35156 44.6434 4.19531 45.4716 4.19531C46.2997 4.19531 47.1044 4.35156 47.8856 4.66406C48.6669 4.97656 49.37 5.41406 49.995 5.97656C50.62 6.53906 51.1122 7.21094 51.4716 7.99219C51.8466 8.75781 52.0341 9.60156 52.0341 10.5234C52.0341 11.4453 51.8466 12.2969 51.4716 13.0781C51.1122 13.8438 50.62 14.5078 49.995 15.0703C49.37 15.6328 48.6669 16.0703 47.8856 16.3828C47.1044 16.6953 46.2997 16.8516 45.4716 16.8516ZM45.4716 12.9844C45.7684 12.9844 46.0887 12.9219 46.4325 12.7969C46.7762 12.6719 47.0731 12.4297 47.3231 12.0703C47.5731 11.7109 47.6981 11.1953 47.6981 10.5234C47.6981 9.83594 47.5731 9.32031 47.3231 8.97656C47.0731 8.61719 46.7762 8.375 46.4325 8.25C46.0887 8.125 45.7684 8.0625 45.4716 8.0625C45.1903 8.0625 44.87 8.125 44.5106 8.25C44.1669 8.375 43.87 8.61719 43.62 8.97656C43.37 9.32031 43.245 9.83594 43.245 10.5234C43.245 11.1953 43.37 11.7109 43.62 12.0703C43.87 12.4297 44.1669 12.6719 44.5106 12.7969C44.87 12.9219 45.1903 12.9844 45.4716 12.9844ZM56.4178 16.5V0.796875H60.8006V16.5H56.4178ZM53.535 16.5V12.8672H63.6834V16.5H53.535ZM53.535 4.42969V0.796875H63.6834V4.42969H53.535ZM73.5047 16.5V9.75C73.5047 9.15625 73.3406 8.74219 73.0125 8.50781C72.6844 8.25781 72.3172 8.13281 71.9109 8.13281C71.4734 8.13281 71.1062 8.25 70.8094 8.48438C70.5125 8.70312 70.2547 8.96875 70.0359 9.28125V6.09375C70.2859 5.75 70.5672 5.4375 70.8797 5.15625C71.2078 4.85938 71.575 4.625 71.9812 4.45312C72.4031 4.28125 72.8797 4.19531 73.4109 4.19531C74.2234 4.19531 74.9422 4.38281 75.5672 4.75781C76.1922 5.11719 76.6766 5.66406 77.0203 6.39844C77.3797 7.13281 77.5594 8.03906 77.5594 9.11719V16.5H73.5047ZM66.0047 16.5V4.54688H70.0359V16.5H66.0047ZM87.2634 16.5V9.75C87.2634 9.15625 87.0994 8.74219 86.7712 8.50781C86.4431 8.25781 86.0759 8.13281 85.6697 8.13281C85.2322 8.13281 84.865 8.25 84.5681 8.48438C84.2712 8.70312 84.0134 8.96875 83.7947 9.28125V6.09375C84.0447 5.75 84.3259 5.4375 84.6384 5.15625C84.9666 4.85938 85.3337 4.625 85.74 4.45312C86.1619 4.28125 86.6384 4.19531 87.1697 4.19531C87.9822 4.19531 88.7009 4.38281 89.3259 4.75781C89.9509 5.11719 90.4353 5.66406 90.7791 6.39844C91.1384 7.13281 91.3181 8.03906 91.3181 9.11719V16.5H87.2634ZM79.7634 16.5V4.54688H83.7947V16.5H79.7634ZM99.2644 16.8516C98.4362 16.8516 97.6316 16.6953 96.8503 16.3828C96.0691 16.0703 95.3659 15.6328 94.7409 15.0703C94.1159 14.5078 93.6159 13.8438 93.2409 13.0781C92.8816 12.2969 92.7019 11.4453 92.7019 10.5234C92.7019 9.60156 92.8816 8.75781 93.2409 7.99219C93.6159 7.21094 94.1159 6.53906 94.7409 5.97656C95.3659 5.41406 96.0691 4.97656 96.8503 4.66406C97.6316 4.35156 98.4362 4.19531 99.2644 4.19531C100.092 4.19531 100.897 4.35156 101.678 4.66406C102.46 4.97656 103.163 5.41406 103.788 5.97656C104.413 6.53906 104.905 7.21094 105.264 7.99219C105.639 8.75781 105.827 9.60156 105.827 10.5234C105.827 11.4453 105.639 12.2969 105.264 13.0781C104.905 13.8438 104.413 14.5078 103.788 15.0703C103.163 15.6328 102.46 16.0703 101.678 16.3828C100.897 16.6953 100.092 16.8516 99.2644 16.8516ZM99.2644 12.9844C99.5612 12.9844 99.8816 12.9219 100.225 12.7969C100.569 12.6719 100.866 12.4297 101.116 12.0703C101.366 11.7109 101.491 11.1953 101.491 10.5234C101.491 9.83594 101.366 9.32031 101.116 8.97656C100.866 8.61719 100.569 8.375 100.225 8.25C99.8816 8.125 99.5612 8.0625 99.2644 8.0625C98.9831 8.0625 98.6628 8.125 98.3034 8.25C97.9597 8.375 97.6628 8.61719 97.4128 8.97656C97.1628 9.32031 97.0378 9.83594 97.0378 10.5234C97.0378 11.1953 97.1628 11.7109 97.4128 12.0703C97.6628 12.4297 97.9597 12.6719 98.3034 12.7969C98.6628 12.9219 98.9831 12.9844 99.2644 12.9844ZM111.101 16.5L105.336 4.54688H109.976L112.39 10.5938L114.781 4.54688H119.422L113.703 16.5H111.101ZM123.618 16.8516C122.727 16.8516 121.891 16.625 121.11 16.1719C120.329 15.7188 119.688 15.0234 119.188 14.0859C118.704 13.1328 118.462 11.9375 118.462 10.5C118.462 9.15625 118.704 8.01562 119.188 7.07812C119.688 6.14062 120.344 5.42969 121.157 4.94531C121.985 4.44531 122.883 4.19531 123.852 4.19531C124.477 4.19531 125.087 4.33594 125.68 4.61719C126.29 4.88281 126.79 5.22656 127.18 5.64844V4.54688H131.212V16.5H127.18V14.5078C126.883 15.1641 126.43 15.7188 125.821 16.1719C125.212 16.625 124.477 16.8516 123.618 16.8516ZM124.813 12.7734C125.157 12.7734 125.508 12.6875 125.868 12.5156C126.227 12.3281 126.532 12.0547 126.782 11.6953C127.048 11.3203 127.18 10.8438 127.18 10.2656V9.11719C126.837 8.83594 126.446 8.60156 126.008 8.41406C125.587 8.22656 125.149 8.13281 124.696 8.13281C124.305 8.13281 123.954 8.24219 123.641 8.46094C123.344 8.67969 123.11 8.96875 122.938 9.32812C122.766 9.6875 122.68 10.0781 122.68 10.5C122.68 10.9219 122.766 11.3047 122.938 11.6484C123.126 11.9922 123.376 12.2656 123.688 12.4688C124.016 12.6719 124.391 12.7734 124.813 12.7734ZM138.783 16.8516C138.033 16.8516 137.33 16.6797 136.673 16.3359C136.033 15.9922 135.509 15.5 135.103 14.8594C134.712 14.2188 134.517 13.4453 134.517 12.5391V7.71094H132.83V5.25C133.595 5.04688 134.212 4.625 134.681 3.98438C135.166 3.34375 135.58 2.51563 135.923 1.5H138.548V4.54688H141.923V7.71094H138.548V11.0625C138.548 11.6406 138.658 12.1016 138.877 12.4453C139.111 12.7734 139.502 12.9375 140.048 12.9375C140.517 12.9375 140.9 12.8594 141.197 12.7031C141.509 12.5312 141.814 12.3594 142.111 12.1875V15.5625C141.861 15.9062 141.439 16.2109 140.845 16.4766C140.252 16.7266 139.564 16.8516 138.783 16.8516ZM149.378 16.8516C148.534 16.8516 147.713 16.7109 146.917 16.4297C146.135 16.1484 145.432 15.7422 144.807 15.2109C144.182 14.6797 143.69 14.0391 143.331 13.2891C142.971 12.5234 142.792 11.6641 142.792 10.7109C142.792 9.52344 143.065 8.4375 143.612 7.45312C144.174 6.46875 144.932 5.67969 145.885 5.08594C146.854 4.49219 147.94 4.19531 149.143 4.19531C150.268 4.19531 151.268 4.44531 152.143 4.94531C153.018 5.44531 153.698 6.14844 154.182 7.05469C154.682 7.94531 154.932 9.00781 154.932 10.2422V11.625H146.471V9.1875H151.112C151.112 8.8125 151.01 8.5 150.807 8.25C150.604 8 150.346 7.82031 150.034 7.71094C149.721 7.58594 149.385 7.52344 149.026 7.52344C148.557 7.52344 148.143 7.64062 147.784 7.875C147.44 8.09375 147.167 8.4375 146.963 8.90625C146.76 9.375 146.659 9.97656 146.659 10.7109C146.659 11.3047 146.784 11.7969 147.034 12.1875C147.299 12.5781 147.659 12.8672 148.112 13.0547C148.565 13.2422 149.065 13.3359 149.612 13.3359C150.518 13.3359 151.299 13.2109 151.956 12.9609C152.628 12.6953 153.128 12.4688 153.456 12.2812V15.7266C153.19 15.8984 152.846 16.0703 152.424 16.2422C152.018 16.4141 151.557 16.5547 151.042 16.6641C150.526 16.7891 149.971 16.8516 149.378 16.8516Z" fill="#D7DFE4"/>
</svg>
