<svg width="168" height="32" viewBox="0 0 168 32" fill="none" xmlns="http://www.w3.org/2000/svg">
<path d="M8.08004 27.8833C9.69337 28.6167 11.7467 28.6167 13.36 27.8833C14.9734 27.15 17.0267 27.15 18.64 27.8833C20.2534 28.6167 22.3067 28.6167 23.92 27.8833M16 4V6.66667M5.33329 17.3333H2.66663M8.41878 9.75215L6.53316 7.86654M23.5807 9.75215L25.4663 7.86654M29.3333 17.3333H26.6666M9.33329 17.3333C9.33329 13.6514 12.3181 10.6667 16 10.6667C19.6819 10.6667 22.6666 13.6514 22.6666 17.3333M2.80009 23.2167C4.41342 22.4833 6.46676 22.4833 8.08009 23.2167C9.69342 23.95 11.7468 23.95 13.3601 23.2167C14.9734 22.4833 17.0268 22.4833 18.6401 23.2167C20.2534 23.95 22.3068 23.95 23.9201 23.2167C25.5334 22.4833 27.5868 22.4833 29.2001 23.2167" stroke="#1B92E8" stroke-width="3" stroke-linecap="square"/>
<path d="M45.3555 25.4102C44.2617 25.4102 43.2409 25.1276 42.293 24.5625C41.3633 23.9974 40.6068 23.1771 40.0234 22.1016C39.4583 21.026 39.1758 19.7227 39.1758 18.1914C39.1758 16.6419 39.4583 15.3203 40.0234 14.2266C40.6068 13.1328 41.3815 12.2943 42.3477 11.7109C43.332 11.1276 44.4167 10.8359 45.6016 10.8359C46.3672 10.8359 47.1237 11.0091 47.8711 11.3555C48.6367 11.7018 49.2747 12.1667 49.7852 12.75V11.1914H53.2578V25H49.7852V22.6758C49.3841 23.4232 48.8008 24.0703 48.0352 24.6172C47.2695 25.1458 46.3763 25.4102 45.3555 25.4102ZM46.2305 21.9375C46.8503 21.9375 47.4245 21.7734 47.9531 21.4453C48.5 21.1172 48.9466 20.6523 49.293 20.0508C49.6393 19.4492 49.8034 18.7383 49.7852 17.918V15.9492C49.293 15.4206 48.7552 15.0013 48.1719 14.6914C47.6068 14.3815 46.987 14.2266 46.3125 14.2266C45.5833 14.2266 44.9544 14.418 44.4258 14.8008C43.9154 15.1654 43.5143 15.6484 43.2227 16.25C42.931 16.8516 42.7852 17.4987 42.7852 18.1914C42.7852 18.8659 42.931 19.4948 43.2227 20.0781C43.5143 20.6432 43.9154 21.099 44.4258 21.4453C44.9544 21.7734 45.556 21.9375 46.2305 21.9375ZM62.8566 25.4102C61.8357 25.4102 60.8787 25.237 59.9855 24.8906C59.0922 24.526 58.2993 24.0247 57.6066 23.3867C56.9321 22.7487 56.4034 21.9922 56.0206 21.1172C55.6378 20.2422 55.4464 19.2852 55.4464 18.2461C55.4464 16.8971 55.7472 15.6667 56.3487 14.5547C56.9503 13.4245 57.7797 12.5221 58.837 11.8477C59.8943 11.1732 61.0974 10.8359 62.4464 10.8359C63.7954 10.8359 64.9529 11.1276 65.9191 11.7109C66.9034 12.2943 67.6508 13.1055 68.1612 14.1445C68.6899 15.1654 68.9542 16.3503 68.9542 17.6992V19.1758H58.6456V16.7969H65.6183C65.5818 16.1224 65.3995 15.5755 65.0714 15.1562C64.7433 14.7188 64.3422 14.3997 63.8683 14.1992C63.3943 13.9805 62.893 13.8711 62.3644 13.8711C61.6534 13.8711 61.0336 14.0534 60.505 14.418C59.9946 14.7826 59.5935 15.293 59.3019 15.9492C59.0102 16.6055 58.8644 17.3711 58.8644 18.2461C58.8644 19.0299 59.0376 19.7227 59.3839 20.3242C59.7303 20.9258 60.2133 21.3997 60.8331 21.7461C61.4711 22.0924 62.1912 22.2656 62.9933 22.2656C64.0141 22.2656 64.9256 22.0651 65.7277 21.6641C66.548 21.263 67.1951 20.8529 67.6691 20.4336V23.6602C67.3956 23.9154 67.0128 24.1797 66.5206 24.4531C66.0284 24.7266 65.4633 24.9544 64.8253 25.1367C64.2055 25.319 63.5493 25.4102 62.8566 25.4102ZM71.0061 25V11.1914H74.4788V25H71.0061ZM74.4788 17.2891V13.7891C74.9527 12.9688 75.5087 12.2852 76.1467 11.7383C76.803 11.1914 77.5413 10.918 78.3616 10.918C78.872 10.918 79.3186 11 79.7014 11.1641V15.0742C79.428 14.9102 79.1363 14.7917 78.8264 14.7188C78.5347 14.6276 78.2157 14.582 77.8694 14.582C77.0855 14.582 76.4202 14.8464 75.8733 15.375C75.3446 15.8854 74.8798 16.5234 74.4788 17.2891ZM87.6869 25.4102C86.6843 25.4102 85.7364 25.2279 84.8431 24.8633C83.9681 24.4805 83.1843 23.9609 82.4916 23.3047C81.7989 22.6484 81.2611 21.8828 80.8783 21.0078C80.4955 20.1146 80.3041 19.1576 80.3041 18.1367C80.3041 17.1159 80.4955 16.168 80.8783 15.293C81.2611 14.3997 81.7989 13.625 82.4916 12.9688C83.1843 12.2943 83.9681 11.7747 84.8431 11.4102C85.7364 11.0273 86.6843 10.8359 87.6869 10.8359C88.6895 10.8359 89.6374 11.0273 90.5306 11.4102C91.4239 11.7747 92.2077 12.2943 92.8822 12.9688C93.5749 13.625 94.1127 14.3997 94.4955 15.293C94.8965 16.168 95.097 17.1159 95.097 18.1367C95.097 19.1576 94.8965 20.1146 94.4955 21.0078C94.1127 21.8828 93.5749 22.6484 92.8822 23.3047C92.2077 23.9609 91.4239 24.4805 90.5306 24.8633C89.6374 25.2279 88.6895 25.4102 87.6869 25.4102ZM87.6869 22.0469C88.3614 22.0469 88.972 21.901 89.5189 21.6094C90.084 21.2995 90.5397 20.8529 90.8861 20.2695C91.2324 19.668 91.4056 18.957 91.4056 18.1367C91.4056 17.2799 91.2324 16.5599 90.8861 15.9766C90.5397 15.3932 90.084 14.9557 89.5189 14.6641C88.972 14.3542 88.3614 14.1992 87.6869 14.1992C87.0489 14.1992 86.4382 14.3542 85.8548 14.6641C85.2897 14.9557 84.834 15.3932 84.4877 15.9766C84.1595 16.5599 83.9955 17.2799 83.9955 18.1367C83.9955 18.957 84.1595 19.668 84.4877 20.2695C84.834 20.8529 85.2897 21.2995 85.8548 21.6094C86.4382 21.901 87.0489 22.0469 87.6869 22.0469ZM99.8833 25L95.1255 11.1914H98.8989L101.442 19.3672L104.422 11.1914H106.911L109.864 19.3672L112.407 11.1914H116.18L111.395 25H108.879L105.653 16.0586L102.426 25H99.8833ZM120.31 8.70312C119.654 8.70312 119.089 8.46615 118.615 7.99219C118.141 7.51823 117.904 6.97135 117.904 6.35156C117.904 5.69531 118.141 5.13932 118.615 4.68359C119.089 4.22786 119.654 4 120.31 4C120.748 4 121.149 4.10938 121.513 4.32812C121.878 4.52865 122.17 4.8112 122.388 5.17578C122.607 5.52214 122.716 5.91406 122.716 6.35156C122.716 6.7526 122.607 7.13542 122.388 7.5C122.17 7.86458 121.878 8.15625 121.513 8.375C121.149 8.59375 120.748 8.70312 120.31 8.70312ZM118.916 25V11.1914H122.388V25H118.916ZM116.701 14.1445V11.1914H122.388V14.1445H116.701ZM134.694 25L134.667 16.9883C134.667 16.0586 134.439 15.3659 133.983 14.9102C133.546 14.4544 132.935 14.2266 132.151 14.2266C131.531 14.2266 130.957 14.4271 130.428 14.8281C129.9 15.2292 129.435 15.7031 129.034 16.25V13.1602C129.326 12.7773 129.672 12.4128 130.073 12.0664C130.492 11.7018 130.966 11.4102 131.495 11.1914C132.023 10.9544 132.598 10.8359 133.217 10.8359C134.165 10.8359 135.013 11.0456 135.76 11.4648C136.508 11.8841 137.091 12.5221 137.51 13.3789C137.948 14.2174 138.167 15.2656 138.167 16.5234V25H134.694ZM125.561 25V11.1914H129.034V25H125.561ZM146.59 31.9727C145.788 31.9727 145.077 31.8815 144.457 31.6992C143.855 31.5352 143.308 31.3164 142.816 31.043C142.324 30.7695 141.85 30.4779 141.394 30.168V26.8867C141.814 27.1419 142.251 27.4154 142.707 27.707C143.181 27.9987 143.719 28.2448 144.32 28.4453C144.922 28.6458 145.605 28.7461 146.371 28.7461C147.209 28.7461 147.948 28.5911 148.586 28.2812C149.242 27.9714 149.752 27.5339 150.117 26.9688C150.5 26.4219 150.691 25.793 150.691 25.082V22.6758C150.29 23.4232 149.707 24.0703 148.941 24.6172C148.176 25.1458 147.282 25.4102 146.262 25.4102C145.168 25.4102 144.147 25.1276 143.199 24.5625C142.269 23.9974 141.513 23.1771 140.93 22.1016C140.364 21.026 140.082 19.7227 140.082 18.1914C140.082 16.6419 140.364 15.3203 140.93 14.2266C141.513 13.1328 142.288 12.2943 143.254 11.7109C144.238 11.1276 145.323 10.8359 146.508 10.8359C147.273 10.8359 148.03 11.0091 148.777 11.3555C149.543 11.7018 150.181 12.1667 150.691 12.75V11.1914H154.164V24.6445C154.164 26.194 153.818 27.5156 153.125 28.6094C152.432 29.7031 151.512 30.5326 150.363 31.0977C149.215 31.681 147.957 31.9727 146.59 31.9727ZM147.137 21.9102C147.756 21.9102 148.331 21.7552 148.859 21.4453C149.406 21.1172 149.844 20.6523 150.172 20.0508C150.518 19.4492 150.691 18.7383 150.691 17.918V15.9492C150.199 15.4206 149.661 15.0104 149.078 14.7188C148.513 14.4089 147.893 14.2539 147.219 14.2539C146.489 14.2539 145.861 14.4362 145.332 14.8008C144.821 15.1654 144.42 15.6484 144.129 16.25C143.837 16.8516 143.691 17.4987 143.691 18.1914C143.691 18.8659 143.837 19.4857 144.129 20.0508C144.42 20.6159 144.821 21.0716 145.332 21.418C145.861 21.7461 146.462 21.9102 147.137 21.9102ZM161.083 25.4102C160.463 25.4102 159.853 25.3372 159.251 25.1914C158.649 25.0638 158.093 24.8906 157.583 24.6719C157.091 24.4531 156.69 24.2344 156.38 24.0156V20.9805C156.726 21.2174 157.145 21.4453 157.638 21.6641C158.13 21.8828 158.64 22.0651 159.169 22.2109C159.698 22.3385 160.181 22.4023 160.618 22.4023C161.311 22.4023 161.839 22.2747 162.204 22.0195C162.587 21.7643 162.778 21.418 162.778 20.9805C162.778 20.6341 162.623 20.3607 162.313 20.1602C162.004 19.9596 161.548 19.7591 160.946 19.5586L159.251 18.957C158.212 18.6107 157.483 18.1185 157.063 17.4805C156.662 16.8424 156.462 16.0859 156.462 15.2109C156.462 14.3359 156.681 13.5794 157.118 12.9414C157.574 12.2852 158.203 11.7747 159.005 11.4102C159.825 11.0273 160.746 10.8359 161.767 10.8359C162.623 10.8359 163.416 10.9635 164.145 11.2188C164.893 11.4557 165.458 11.7474 165.841 12.0938V15.1562C165.422 14.8646 164.893 14.582 164.255 14.3086C163.635 14.0352 162.979 13.8984 162.286 13.8984C161.63 13.8984 161.11 14.0443 160.728 14.3359C160.345 14.6276 160.153 14.974 160.153 15.375C160.153 15.6667 160.263 15.9401 160.481 16.1953C160.718 16.4323 161.138 16.6419 161.739 16.8242L163.298 17.3438C164.373 17.6536 165.166 18.1185 165.677 18.7383C166.187 19.3398 166.442 20.0872 166.442 20.9805C166.442 21.819 166.196 22.5755 165.704 23.25C165.23 23.9245 164.583 24.4531 163.763 24.8359C162.961 25.2188 162.067 25.4102 161.083 25.4102Z" fill="#1B92E8"/>
</svg>
